<svg width="25" height="25" viewBox="0 0 25 25" fill="black" xmlns="http://www.w3.org/2000/svg">
<mask id="mask0_648_3180" style="mask-type:alpha" maskUnits="userSpaceOnUse" x="0" y="0" width="25" height="25">
<rect x="0.842102" y="0.5" width="24" height="24" />
</mask>
<g mask="url(#mask0_648_3180)">
<path d="M12.8421 20.5C12.2921 20.5 11.8213 20.3042 11.4296 19.9125C11.0379 19.5208 10.8421 19.05 10.8421 18.5C10.8421 17.95 11.0379 17.4792 11.4296 17.0875C11.8213 16.6958 12.2921 16.5 12.8421 16.5C13.3921 16.5 13.8629 16.6958 14.2546 17.0875C14.6463 17.4792 14.8421 17.95 14.8421 18.5C14.8421 19.05 14.6463 19.5208 14.2546 19.9125C13.8629 20.3042 13.3921 20.5 12.8421 20.5ZM12.8421 14.5C12.2921 14.5 11.8213 14.3042 11.4296 13.9125C11.0379 13.5208 10.8421 13.05 10.8421 12.5C10.8421 11.95 11.0379 11.4792 11.4296 11.0875C11.8213 10.6958 12.2921 10.5 12.8421 10.5C13.3921 10.5 13.8629 10.6958 14.2546 11.0875C14.6463 11.4792 14.8421 11.95 14.8421 12.5C14.8421 13.05 14.6463 13.5208 14.2546 13.9125C13.8629 14.3042 13.3921 14.5 12.8421 14.5ZM12.8421 8.5C12.2921 8.5 11.8213 8.30417 11.4296 7.9125C11.0379 7.52083 10.8421 7.05 10.8421 6.5C10.8421 5.95 11.0379 5.47917 11.4296 5.0875C11.8213 4.69583 12.2921 4.5 12.8421 4.5C13.3921 4.5 13.8629 4.69583 14.2546 5.0875C14.6463 5.47917 14.8421 5.95 14.8421 6.5C14.8421 7.05 14.6463 7.52083 14.2546 7.9125C13.8629 8.30417 13.3921 8.5 12.8421 8.5Z" />
</g>
</svg>
