<svg width="26" height="28" viewBox="0 0 26 28" fill="none" xmlns="http://www.w3.org/2000/svg">
<path d="M26 13.3323V26.3323C26 26.6196 25.8859 26.8952 25.6827 27.0983C25.4795 27.3015 25.204 27.4156 24.9167 27.4156H17.3333C17.046 27.4156 16.7705 27.3015 16.5673 27.0983C16.3641 26.8952 16.25 26.6196 16.25 26.3323V19.2906C16.25 19.147 16.1929 19.0092 16.0914 18.9076C15.9898 18.806 15.852 18.749 15.7083 18.749H10.2917C10.148 18.749 10.0102 18.806 9.90865 18.9076C9.80707 19.0092 9.75 19.147 9.75 19.2906V26.3323C9.75 26.6196 9.63586 26.8952 9.4327 27.0983C9.22954 27.3015 8.95399 27.4156 8.66667 27.4156H1.08333C0.796016 27.4156 0.520466 27.3015 0.317301 27.0983C0.114137 26.8952 0 26.6196 0 26.3323V13.3323C0.00026635 12.7578 0.228714 12.2069 0.635104 11.8007L11.4684 0.967413C11.8747 0.561391 12.4256 0.333313 13 0.333313C13.5744 0.333313 14.1253 0.561391 14.5316 0.967413L25.3649 11.8007C25.7713 12.2069 25.9997 12.7578 26 13.3323Z" fill="black"/>
</svg>
