<svg width="26" height="18" viewBox="0 0 26 18" fill="none" xmlns="http://www.w3.org/2000/svg">
<path d="M1.44444 17.3333H24.5556C25.35 17.3333 26 16.6833 26 15.8889C26 15.0944 25.35 14.4444 24.5556 14.4444H1.44444C0.65 14.4444 0 15.0944 0 15.8889C0 16.6833 0.65 17.3333 1.44444 17.3333ZM1.44444 10.1111H24.5556C25.35 10.1111 26 9.46111 26 8.66667C26 7.87222 25.35 7.22222 24.5556 7.22222H1.44444C0.65 7.22222 0 7.87222 0 8.66667C0 9.46111 0.65 10.1111 1.44444 10.1111ZM0 1.44444C0 2.23889 0.65 2.88889 1.44444 2.88889H24.5556C25.35 2.88889 26 2.23889 26 1.44444C26 0.65 25.35 0 24.5556 0H1.44444C0.65 0 0 0.65 0 1.44444Z" fill="white"/>
</svg>
