<svg width="26" height="24" viewBox="0 0 26 24" fill="none" xmlns="http://www.w3.org/2000/svg">
<path fill-rule="evenodd" clip-rule="evenodd" d="M2.6 0.415649C1.91044 0.415649 1.24912 0.689577 0.761522 1.17717C0.273928 1.66477 0 2.32609 0 3.01565V21.2157C0 21.9052 0.273928 22.5665 0.761522 23.0541C1.24912 23.5417 1.91044 23.8157 2.6 23.8157H23.4C24.0896 23.8157 24.7509 23.5417 25.2385 23.0541C25.7261 22.5665 26 21.9052 26 21.2157V3.01565C26 2.32609 25.7261 1.66477 25.2385 1.17717C24.7509 0.689577 24.0896 0.415649 23.4 0.415649H2.6ZM8.6125 7.73465C8.64135 7.48611 8.72789 7.24776 8.86521 7.0386C9.00253 6.82945 9.18684 6.65528 9.40342 6.53001C9.62001 6.40473 9.86287 6.33181 10.1126 6.31705C10.3624 6.3023 10.6122 6.34614 10.842 6.44505C11.4972 6.72585 12.8804 7.35765 14.6328 8.36905C15.8644 9.07292 17.0537 9.84817 18.1948 10.6909C18.3954 10.8401 18.5584 11.0343 18.6706 11.2577C18.7829 11.4812 18.8414 11.7278 18.8414 11.9778C18.8414 12.2279 18.7829 12.4745 18.6706 12.698C18.5584 12.9214 18.3954 13.1156 18.1948 13.2648C17.0537 14.1066 15.8643 14.881 14.6328 15.5841C13.4078 16.2996 12.1421 16.9429 10.842 17.5107C10.6122 17.6099 10.3624 17.6539 10.1125 17.6393C9.86263 17.6247 9.61965 17.5518 9.40298 17.4265C9.18632 17.3011 9.00199 17.1268 8.86473 16.9175C8.72747 16.7082 8.64109 16.4697 8.6125 16.2211C8.45652 14.8121 8.38013 13.3954 8.3837 11.9778C8.3837 9.96155 8.5293 8.44315 8.6125 7.73465Z" fill="white"/>
</svg>
