<svg width="56" height="30" viewBox="0 0 56 30" fill="none" xmlns="http://www.w3.org/2000/svg">
<rect width="56" height="30" rx="10" fill="#EAEAEA"/>
<path d="M20.9043 15.5635H18.3613L18.3477 14.2373H20.5283C20.902 14.2373 21.2142 14.1849 21.4648 14.0801C21.7155 13.9753 21.9046 13.8226 22.0322 13.6221C22.1644 13.4215 22.2305 13.1777 22.2305 12.8906C22.2305 12.5716 22.1689 12.3118 22.0459 12.1113C21.9274 11.9108 21.7406 11.765 21.4854 11.6738C21.2301 11.5781 20.9066 11.5303 20.5146 11.5303H18.9697V20H17.0898V10.0469H20.5146C21.0798 10.0469 21.5833 10.1016 22.0254 10.2109C22.472 10.3158 22.8503 10.4798 23.1602 10.7031C23.4701 10.9264 23.7048 11.2067 23.8643 11.5439C24.0283 11.8812 24.1104 12.2822 24.1104 12.7471C24.1104 13.1572 24.0146 13.5355 23.8232 13.8818C23.6364 14.2236 23.347 14.5016 22.9551 14.7158C22.5677 14.93 22.0755 15.0531 21.4785 15.085L20.9043 15.5635ZM20.8223 20H17.8076L18.5938 18.5234H20.8223C21.196 18.5234 21.5036 18.4619 21.7451 18.3389C21.9912 18.2158 22.1735 18.0472 22.292 17.833C22.415 17.6143 22.4766 17.3636 22.4766 17.0811C22.4766 16.7712 22.4219 16.5023 22.3125 16.2744C22.2077 16.0465 22.0391 15.8711 21.8066 15.748C21.5788 15.625 21.278 15.5635 20.9043 15.5635H18.9492L18.9629 14.2373H21.4512L21.8818 14.75C22.4561 14.7546 22.9232 14.8685 23.2832 15.0918C23.6478 15.3151 23.9167 15.6022 24.0898 15.9531C24.263 16.304 24.3496 16.6823 24.3496 17.0879C24.3496 17.7259 24.2106 18.2614 23.9326 18.6943C23.6592 19.1273 23.2581 19.4531 22.7295 19.6719C22.2054 19.8906 21.5697 20 20.8223 20ZM28.875 18.7148C29.1302 18.7148 29.3581 18.6647 29.5586 18.5645C29.7591 18.4642 29.9186 18.3229 30.0371 18.1406C30.1602 17.9583 30.2262 17.7464 30.2354 17.5049H31.9375C31.9284 18.0062 31.7871 18.4551 31.5137 18.8516C31.2402 19.248 30.8757 19.5625 30.4199 19.7949C29.9688 20.0228 29.4629 20.1367 28.9023 20.1367C28.3327 20.1367 27.8359 20.041 27.4121 19.8496C26.9883 19.6582 26.6351 19.3916 26.3525 19.0498C26.0745 18.708 25.8649 18.3115 25.7236 17.8604C25.5869 17.4092 25.5186 16.9261 25.5186 16.4111V16.1924C25.5186 15.6774 25.5869 15.1943 25.7236 14.7432C25.8649 14.292 26.0745 13.8955 26.3525 13.5537C26.6351 13.2119 26.9883 12.9453 27.4121 12.7539C27.8359 12.5625 28.3304 12.4668 28.8955 12.4668C29.4925 12.4668 30.0166 12.583 30.4678 12.8154C30.9235 13.0479 31.279 13.376 31.5342 13.7998C31.7939 14.2236 31.9284 14.7227 31.9375 15.2969H30.2354C30.2262 15.0326 30.167 14.7956 30.0576 14.5859C29.9482 14.3763 29.7933 14.2077 29.5928 14.0801C29.3923 13.9525 29.1484 13.8887 28.8613 13.8887C28.556 13.8887 28.3008 13.9525 28.0957 14.0801C27.8952 14.2077 27.738 14.3831 27.624 14.6064C27.5146 14.8252 27.4372 15.0713 27.3916 15.3447C27.3506 15.6136 27.3301 15.8962 27.3301 16.1924V16.4111C27.3301 16.7119 27.3506 16.999 27.3916 17.2725C27.4372 17.5459 27.5146 17.792 27.624 18.0107C27.738 18.2249 27.8952 18.3958 28.0957 18.5234C28.3008 18.651 28.5605 18.7148 28.875 18.7148ZM36.4629 20.1367C35.9023 20.1367 35.3988 20.0456 34.9521 19.8633C34.5055 19.681 34.125 19.4281 33.8105 19.1045C33.5007 18.7764 33.2614 18.3958 33.0928 17.9629C32.9287 17.5254 32.8467 17.056 32.8467 16.5547V16.2812C32.8467 15.7116 32.9287 15.1943 33.0928 14.7295C33.2568 14.2601 33.4893 13.8568 33.79 13.5195C34.0908 13.1823 34.4508 12.9225 34.8701 12.7402C35.2894 12.5579 35.752 12.4668 36.2578 12.4668C36.7819 12.4668 37.2445 12.5557 37.6455 12.7334C38.0465 12.9066 38.3815 13.1527 38.6504 13.4717C38.9193 13.7907 39.1221 14.1735 39.2588 14.6201C39.3955 15.0622 39.4639 15.5521 39.4639 16.0898V16.8486H33.667V15.6045H37.6865V15.4678C37.6774 15.1807 37.6227 14.9186 37.5225 14.6816C37.4222 14.4401 37.2673 14.2487 37.0576 14.1074C36.848 13.9616 36.5768 13.8887 36.2441 13.8887C35.9753 13.8887 35.7406 13.9479 35.54 14.0664C35.3441 14.1803 35.18 14.3444 35.0479 14.5586C34.9202 14.7682 34.8245 15.0189 34.7607 15.3105C34.6969 15.6022 34.665 15.9258 34.665 16.2812V16.5547C34.665 16.8646 34.7061 17.1517 34.7881 17.416C34.8747 17.6803 35 17.9105 35.1641 18.1064C35.3327 18.2979 35.5332 18.4482 35.7656 18.5576C36.0026 18.6624 36.2715 18.7148 36.5723 18.7148C36.9505 18.7148 37.2923 18.6419 37.5977 18.4961C37.9076 18.3457 38.1764 18.1247 38.4043 17.833L39.3135 18.7764C39.1585 19.0042 38.9489 19.223 38.6846 19.4326C38.4248 19.6423 38.1104 19.8132 37.7412 19.9453C37.3721 20.0729 36.946 20.1367 36.4629 20.1367Z" fill="black"/>
</svg>
