<svg width="72" height="30" viewBox="0 0 72 30" fill="none" xmlns="http://www.w3.org/2000/svg">
<rect width="72" height="30" rx="10" fill="#EAEAEA"/>
<path d="M22.9844 16.7256H24.8643C24.8141 17.391 24.6296 17.9811 24.3105 18.4961C23.9915 19.0065 23.5472 19.4076 22.9775 19.6992C22.4079 19.9909 21.7174 20.1367 20.9062 20.1367C20.2819 20.1367 19.7191 20.0273 19.2178 19.8086C18.721 19.5853 18.2949 19.2686 17.9395 18.8584C17.5885 18.4437 17.3197 17.9469 17.1328 17.3682C16.946 16.7848 16.8525 16.1309 16.8525 15.4062V14.6475C16.8525 13.9229 16.9482 13.2689 17.1396 12.6855C17.3311 12.1022 17.6045 11.6055 17.96 11.1953C18.32 10.7806 18.7507 10.4616 19.252 10.2383C19.7578 10.015 20.3229 9.90332 20.9473 9.90332C21.7585 9.90332 22.4443 10.0537 23.0049 10.3545C23.5654 10.6507 24.0007 11.0586 24.3105 11.5781C24.6204 12.0977 24.8073 12.6947 24.8711 13.3691H22.9912C22.9548 12.9499 22.8636 12.5944 22.7178 12.3027C22.5765 12.0111 22.3623 11.79 22.0752 11.6396C21.7926 11.4847 21.4167 11.4072 20.9473 11.4072C20.5827 11.4072 20.2614 11.4756 19.9834 11.6123C19.71 11.749 19.4821 11.9541 19.2998 12.2275C19.1175 12.4964 18.9808 12.8337 18.8896 13.2393C18.7985 13.6403 18.7529 14.1051 18.7529 14.6338V15.4062C18.7529 15.9121 18.7939 16.3656 18.876 16.7666C18.958 17.1676 19.0856 17.5072 19.2588 17.7852C19.432 18.0632 19.6553 18.2751 19.9287 18.4209C20.2021 18.5667 20.528 18.6396 20.9062 18.6396C21.3665 18.6396 21.7402 18.5667 22.0273 18.4209C22.319 18.2751 22.54 18.0609 22.6904 17.7783C22.8454 17.4958 22.9434 17.1449 22.9844 16.7256ZM31.1465 12.6035V14.0322H27.5303V12.6035H31.1465ZM28.0088 12.6035V20H26.1973V12.6035H28.0088ZM32.5137 12.6035V20H30.6953V12.6035H32.5137ZM33.833 16.377V16.2334C33.833 15.6911 33.9105 15.1921 34.0654 14.7363C34.2204 14.276 34.446 13.8773 34.7422 13.54C35.0384 13.2028 35.4007 12.9408 35.8291 12.7539C36.2575 12.5625 36.7451 12.4668 37.292 12.4668C37.848 12.4668 38.3402 12.5625 38.7686 12.7539C39.2015 12.9408 39.5661 13.2028 39.8623 13.54C40.1585 13.8773 40.3841 14.276 40.5391 14.7363C40.694 15.1921 40.7715 15.6911 40.7715 16.2334V16.377C40.7715 16.9147 40.694 17.4137 40.5391 17.874C40.3841 18.3298 40.1585 18.7285 39.8623 19.0703C39.5661 19.4076 39.2038 19.6696 38.7754 19.8564C38.347 20.0433 37.8571 20.1367 37.3057 20.1367C36.7588 20.1367 36.2689 20.0433 35.8359 19.8564C35.403 19.6696 35.0384 19.4076 34.7422 19.0703C34.446 18.7285 34.2204 18.3298 34.0654 17.874C33.9105 17.4137 33.833 16.9147 33.833 16.377ZM35.6377 16.2334V16.377C35.6377 16.7005 35.6696 17.0036 35.7334 17.2861C35.7972 17.5687 35.8952 17.8171 36.0273 18.0312C36.1595 18.2454 36.3304 18.4141 36.54 18.5371C36.7542 18.6556 37.0094 18.7148 37.3057 18.7148C37.5973 18.7148 37.848 18.6556 38.0576 18.5371C38.2673 18.4141 38.4382 18.2454 38.5703 18.0312C38.707 17.8171 38.8073 17.5687 38.8711 17.2861C38.9349 17.0036 38.9668 16.7005 38.9668 16.377V16.2334C38.9668 15.9144 38.9349 15.6159 38.8711 15.3379C38.8073 15.0553 38.707 14.807 38.5703 14.5928C38.4382 14.374 38.265 14.2031 38.0508 14.0801C37.8411 13.9525 37.5882 13.8887 37.292 13.8887C37.0003 13.8887 36.7497 13.9525 36.54 14.0801C36.3304 14.2031 36.1595 14.374 36.0273 14.5928C35.8952 14.807 35.7972 15.0553 35.7334 15.3379C35.6696 15.6159 35.6377 15.9144 35.6377 16.2334ZM43.8887 14.0254V22.8438H42.0771V12.6035H43.752L43.8887 14.0254ZM48.6396 16.2266V16.3701C48.6396 16.9079 48.5758 17.4069 48.4482 17.8672C48.3252 18.3229 48.1429 18.7217 47.9014 19.0635C47.6598 19.4007 47.359 19.665 46.999 19.8564C46.6436 20.0433 46.2334 20.1367 45.7686 20.1367C45.3128 20.1367 44.9163 20.0501 44.5791 19.877C44.2419 19.6992 43.957 19.4486 43.7246 19.125C43.4922 18.8014 43.3053 18.4255 43.1641 17.9971C43.0273 17.5641 42.9248 17.0924 42.8564 16.582V16.124C42.9248 15.5817 43.0273 15.0895 43.1641 14.6475C43.3053 14.2008 43.4922 13.8158 43.7246 13.4922C43.957 13.1641 44.2396 12.9111 44.5723 12.7334C44.9095 12.5557 45.3037 12.4668 45.7549 12.4668C46.2243 12.4668 46.6367 12.5557 46.9922 12.7334C47.3522 12.9111 47.6553 13.1663 47.9014 13.499C48.1475 13.8317 48.332 14.2282 48.4551 14.6885C48.5781 15.1488 48.6396 15.6615 48.6396 16.2266ZM46.8281 16.3701V16.2266C46.8281 15.8984 46.7985 15.5954 46.7393 15.3174C46.68 15.0348 46.5889 14.7887 46.4658 14.5791C46.3428 14.3649 46.1833 14.1986 45.9873 14.0801C45.7913 13.9616 45.5544 13.9023 45.2764 13.9023C44.9984 13.9023 44.7591 13.9479 44.5586 14.0391C44.3581 14.1302 44.194 14.2601 44.0664 14.4287C43.9388 14.5973 43.8385 14.7979 43.7656 15.0303C43.6973 15.2581 43.6517 15.5111 43.6289 15.7891V16.9238C43.6699 17.2611 43.7497 17.5641 43.8682 17.833C43.9867 18.1019 44.1598 18.3161 44.3877 18.4756C44.6201 18.6351 44.9209 18.7148 45.29 18.7148C45.568 18.7148 45.805 18.6533 46.001 18.5303C46.1969 18.4072 46.3564 18.2386 46.4795 18.0244C46.6025 17.8057 46.6914 17.555 46.7461 17.2725C46.8008 16.9899 46.8281 16.6891 46.8281 16.3701ZM53.1377 12.6035V20H51.3262V12.6035H53.1377ZM55.5439 12.6035V14.0117H48.9609V12.6035H55.5439Z" fill="black"/>
</svg>
