<svg width="91" height="30" viewBox="0 0 91 30" fill="none" xmlns="http://www.w3.org/2000/svg">
<rect width="91" height="30" rx="10" fill="#EAEAEA"/>
<path d="M20.8359 16.3701H18.2725V14.8936H20.8359C21.2552 14.8936 21.5947 14.8252 21.8545 14.6885C22.1188 14.5472 22.3125 14.3558 22.4355 14.1143C22.5586 13.8682 22.6201 13.5879 22.6201 13.2734C22.6201 12.9681 22.5586 12.6833 22.4355 12.4189C22.3125 12.1546 22.1188 11.9404 21.8545 11.7764C21.5947 11.6123 21.2552 11.5303 20.8359 11.5303H18.8877V20H17.0078V10.0469H20.8359C21.6107 10.0469 22.2715 10.1859 22.8184 10.4639C23.3698 10.7373 23.7891 11.1178 24.0762 11.6055C24.3678 12.0885 24.5137 12.64 24.5137 13.2598C24.5137 13.9023 24.3678 14.4561 24.0762 14.9209C23.7891 15.3857 23.3698 15.7435 22.8184 15.9941C22.2715 16.2448 21.6107 16.3701 20.8359 16.3701ZM29.0801 20.1367C28.5195 20.1367 28.016 20.0456 27.5693 19.8633C27.1227 19.681 26.7422 19.4281 26.4277 19.1045C26.1178 18.7764 25.8786 18.3958 25.71 17.9629C25.5459 17.5254 25.4639 17.056 25.4639 16.5547V16.2812C25.4639 15.7116 25.5459 15.1943 25.71 14.7295C25.874 14.2601 26.1064 13.8568 26.4072 13.5195C26.708 13.1823 27.068 12.9225 27.4873 12.7402C27.9066 12.5579 28.3691 12.4668 28.875 12.4668C29.3991 12.4668 29.8617 12.5557 30.2627 12.7334C30.6637 12.9066 30.9987 13.1527 31.2676 13.4717C31.5365 13.7907 31.7393 14.1735 31.876 14.6201C32.0127 15.0622 32.0811 15.5521 32.0811 16.0898V16.8486H26.2842V15.6045H30.3037V15.4678C30.2946 15.1807 30.2399 14.9186 30.1396 14.6816C30.0394 14.4401 29.8844 14.2487 29.6748 14.1074C29.4652 13.9616 29.194 13.8887 28.8613 13.8887C28.5924 13.8887 28.3577 13.9479 28.1572 14.0664C27.9613 14.1803 27.7972 14.3444 27.665 14.5586C27.5374 14.7682 27.4417 15.0189 27.3779 15.3105C27.3141 15.6022 27.2822 15.9258 27.2822 16.2812V16.5547C27.2822 16.8646 27.3232 17.1517 27.4053 17.416C27.4919 17.6803 27.6172 17.9105 27.7812 18.1064C27.9499 18.2979 28.1504 18.4482 28.3828 18.5576C28.6198 18.6624 28.8887 18.7148 29.1895 18.7148C29.5677 18.7148 29.9095 18.6419 30.2148 18.4961C30.5247 18.3457 30.7936 18.1247 31.0215 17.833L31.9307 18.7764C31.7757 19.0042 31.5661 19.223 31.3018 19.4326C31.042 19.6423 30.7275 19.8132 30.3584 19.9453C29.9893 20.0729 29.5632 20.1367 29.0801 20.1367ZM33.3047 20V12.6035H35.1162V18.5781H37.8027V12.6035H39.6211V20H33.3047ZM40.6738 18.585L40.5439 22.1943H38.8691V20H38.0146V18.585H40.6738ZM45.0898 20.1367C44.5293 20.1367 44.0257 20.0456 43.5791 19.8633C43.1325 19.681 42.752 19.4281 42.4375 19.1045C42.1276 18.7764 41.8883 18.3958 41.7197 17.9629C41.5557 17.5254 41.4736 17.056 41.4736 16.5547V16.2812C41.4736 15.7116 41.5557 15.1943 41.7197 14.7295C41.8838 14.2601 42.1162 13.8568 42.417 13.5195C42.7178 13.1823 43.0778 12.9225 43.4971 12.7402C43.9163 12.5579 44.3789 12.4668 44.8848 12.4668C45.4089 12.4668 45.8714 12.5557 46.2725 12.7334C46.6735 12.9066 47.0085 13.1527 47.2773 13.4717C47.5462 13.7907 47.749 14.1735 47.8857 14.6201C48.0225 15.0622 48.0908 15.5521 48.0908 16.0898V16.8486H42.2939V15.6045H46.3135V15.4678C46.3044 15.1807 46.2497 14.9186 46.1494 14.6816C46.0492 14.4401 45.8942 14.2487 45.6846 14.1074C45.4749 13.9616 45.2038 13.8887 44.8711 13.8887C44.6022 13.8887 44.3675 13.9479 44.167 14.0664C43.971 14.1803 43.807 14.3444 43.6748 14.5586C43.5472 14.7682 43.4515 15.0189 43.3877 15.3105C43.3239 15.6022 43.292 15.9258 43.292 16.2812V16.5547C43.292 16.8646 43.333 17.1517 43.415 17.416C43.5016 17.6803 43.627 17.9105 43.791 18.1064C43.9596 18.2979 44.1602 18.4482 44.3926 18.5576C44.6296 18.6624 44.8984 18.7148 45.1992 18.7148C45.5775 18.7148 45.9193 18.6419 46.2246 18.4961C46.5345 18.3457 46.8034 18.1247 47.0312 17.833L47.9404 18.7764C47.7855 19.0042 47.5758 19.223 47.3115 19.4326C47.0518 19.6423 46.7373 19.8132 46.3682 19.9453C45.999 20.0729 45.5729 20.1367 45.0898 20.1367ZM54.2637 12.6035V14.0322H50.6475V12.6035H54.2637ZM51.126 12.6035V20H49.3145V12.6035H51.126ZM55.6309 12.6035V20H53.8125V12.6035H55.6309ZM60.8604 12.6035V20H59.0488V12.6035H60.8604ZM63.2666 12.6035V14.0117H56.6836V12.6035H63.2666ZM65.6113 14.8799H67.7715C68.4277 14.8799 68.986 14.9893 69.4463 15.208C69.9111 15.4222 70.2643 15.723 70.5059 16.1104C70.752 16.4932 70.875 16.9375 70.875 17.4434C70.875 17.8079 70.8044 18.1475 70.6631 18.4619C70.5264 18.7718 70.3258 19.043 70.0615 19.2754C69.7972 19.5033 69.4714 19.681 69.084 19.8086C68.7012 19.9362 68.2637 20 67.7715 20H64.4492V12.6035H66.2607V18.585H67.7715C68.0859 18.585 68.3366 18.5326 68.5234 18.4277C68.7148 18.3184 68.8516 18.1794 68.9336 18.0107C69.0202 17.8376 69.0635 17.653 69.0635 17.457C69.0635 17.2565 69.0202 17.0697 68.9336 16.8965C68.8516 16.7188 68.7148 16.5752 68.5234 16.4658C68.3366 16.3564 68.0859 16.3018 67.7715 16.3018H65.6113V14.8799ZM73.9102 12.6035V20H72.0986V12.6035H73.9102Z" fill="black"/>
</svg>
