<svg width="86" height="30" viewBox="0 0 86 30" fill="none" xmlns="http://www.w3.org/2000/svg">
<rect width="86" height="30" rx="10" fill="#EAEAEA"/>
<path d="M18.917 10.0469V20H17.0371V10.0469H18.917ZM24.8438 10.0469L20.9131 15.8027H18.4453L18.1992 14.1484H19.8945L22.5537 10.0469H24.8438ZM22.9092 20L19.9082 15.502L21.1729 14.1143L25.1582 20H22.9092ZM27.6396 14.0254V22.8438H25.8281V12.6035H27.5029L27.6396 14.0254ZM32.3906 16.2266V16.3701C32.3906 16.9079 32.3268 17.4069 32.1992 17.8672C32.0762 18.3229 31.8939 18.7217 31.6523 19.0635C31.4108 19.4007 31.11 19.665 30.75 19.8564C30.3945 20.0433 29.9844 20.1367 29.5195 20.1367C29.0638 20.1367 28.6673 20.0501 28.3301 19.877C27.9928 19.6992 27.708 19.4486 27.4756 19.125C27.2432 18.8014 27.0563 18.4255 26.915 17.9971C26.7783 17.5641 26.6758 17.0924 26.6074 16.582V16.124C26.6758 15.5817 26.7783 15.0895 26.915 14.6475C27.0563 14.2008 27.2432 13.8158 27.4756 13.4922C27.708 13.1641 27.9906 12.9111 28.3232 12.7334C28.6605 12.5557 29.0547 12.4668 29.5059 12.4668C29.9753 12.4668 30.3877 12.5557 30.7432 12.7334C31.1032 12.9111 31.4062 13.1663 31.6523 13.499C31.8984 13.8317 32.083 14.2282 32.2061 14.6885C32.3291 15.1488 32.3906 15.6615 32.3906 16.2266ZM30.5791 16.3701V16.2266C30.5791 15.8984 30.5495 15.5954 30.4902 15.3174C30.431 15.0348 30.3398 14.7887 30.2168 14.5791C30.0938 14.3649 29.9342 14.1986 29.7383 14.0801C29.5423 13.9616 29.3053 13.9023 29.0273 13.9023C28.7493 13.9023 28.5101 13.9479 28.3096 14.0391C28.109 14.1302 27.945 14.2601 27.8174 14.4287C27.6898 14.5973 27.5895 14.7979 27.5166 15.0303C27.4482 15.2581 27.4027 15.5111 27.3799 15.7891V16.9238C27.4209 17.2611 27.5007 17.5641 27.6191 17.833C27.7376 18.1019 27.9108 18.3161 28.1387 18.4756C28.3711 18.6351 28.6719 18.7148 29.041 18.7148C29.319 18.7148 29.556 18.6533 29.752 18.5303C29.9479 18.4072 30.1074 18.2386 30.2305 18.0244C30.3535 17.8057 30.4424 17.555 30.4971 17.2725C30.5518 16.9899 30.5791 16.6891 30.5791 16.3701ZM37.7842 18.4277V15.0166C37.7842 14.766 37.7409 14.5495 37.6543 14.3672C37.5677 14.1849 37.4355 14.0436 37.2578 13.9434C37.0801 13.8431 36.8545 13.793 36.5811 13.793C36.3395 13.793 36.1276 13.834 35.9453 13.916C35.7676 13.998 35.6309 14.1143 35.5352 14.2646C35.4395 14.4105 35.3916 14.5791 35.3916 14.7705H33.5801C33.5801 14.4652 33.653 14.1758 33.7988 13.9023C33.9447 13.6243 34.152 13.3783 34.4209 13.1641C34.6943 12.9453 35.0202 12.7744 35.3984 12.6514C35.7812 12.5283 36.2096 12.4668 36.6836 12.4668C37.2441 12.4668 37.7432 12.5625 38.1807 12.7539C38.6227 12.9408 38.9691 13.2233 39.2197 13.6016C39.4749 13.9798 39.6025 14.4561 39.6025 15.0303V18.2568C39.6025 18.626 39.6253 18.9427 39.6709 19.207C39.721 19.4668 39.7939 19.6924 39.8896 19.8838V20H38.0508C37.9642 19.8132 37.8981 19.5762 37.8525 19.2891C37.807 18.9974 37.7842 18.7103 37.7842 18.4277ZM38.0371 15.4951L38.0508 16.5684H36.9092C36.6266 16.5684 36.3783 16.598 36.1641 16.6572C35.9499 16.7119 35.7744 16.7939 35.6377 16.9033C35.501 17.0081 35.3984 17.1357 35.3301 17.2861C35.2617 17.432 35.2275 17.5983 35.2275 17.7852C35.2275 17.9674 35.2686 18.1315 35.3506 18.2773C35.4372 18.4232 35.5602 18.5394 35.7197 18.626C35.8838 18.708 36.0752 18.749 36.2939 18.749C36.613 18.749 36.891 18.6852 37.1279 18.5576C37.3649 18.4255 37.5495 18.266 37.6816 18.0791C37.8138 17.8923 37.8844 17.7145 37.8936 17.5459L38.4131 18.3252C38.3493 18.512 38.2536 18.7103 38.126 18.9199C37.9984 19.1296 37.8343 19.3255 37.6338 19.5078C37.4333 19.6901 37.1917 19.8405 36.9092 19.959C36.6266 20.0775 36.2985 20.1367 35.9248 20.1367C35.4463 20.1367 35.0179 20.041 34.6396 19.8496C34.2614 19.6582 33.9629 19.3962 33.7441 19.0635C33.5254 18.7308 33.416 18.3525 33.416 17.9287C33.416 17.5368 33.4889 17.1904 33.6348 16.8896C33.7806 16.5889 33.9971 16.3359 34.2842 16.1309C34.5713 15.9212 34.9268 15.764 35.3506 15.6592C35.779 15.5498 36.2689 15.4951 36.8203 15.4951H38.0371ZM44.2646 18.7148C44.5199 18.7148 44.7477 18.6647 44.9482 18.5645C45.1488 18.4642 45.3083 18.3229 45.4268 18.1406C45.5498 17.9583 45.6159 17.7464 45.625 17.5049H47.3271C47.318 18.0062 47.1768 18.4551 46.9033 18.8516C46.6299 19.248 46.2653 19.5625 45.8096 19.7949C45.3584 20.0228 44.8525 20.1367 44.292 20.1367C43.7223 20.1367 43.2256 20.041 42.8018 19.8496C42.3779 19.6582 42.0247 19.3916 41.7422 19.0498C41.4642 18.708 41.2546 18.3115 41.1133 17.8604C40.9766 17.4092 40.9082 16.9261 40.9082 16.4111V16.1924C40.9082 15.6774 40.9766 15.1943 41.1133 14.7432C41.2546 14.292 41.4642 13.8955 41.7422 13.5537C42.0247 13.2119 42.3779 12.9453 42.8018 12.7539C43.2256 12.5625 43.7201 12.4668 44.2852 12.4668C44.8822 12.4668 45.4062 12.583 45.8574 12.8154C46.3132 13.0479 46.6686 13.376 46.9238 13.7998C47.1836 14.2236 47.318 14.7227 47.3271 15.2969H45.625C45.6159 15.0326 45.5566 14.7956 45.4473 14.5859C45.3379 14.3763 45.1829 14.2077 44.9824 14.0801C44.7819 13.9525 44.5381 13.8887 44.251 13.8887C43.9456 13.8887 43.6904 13.9525 43.4854 14.0801C43.2848 14.2077 43.1276 14.3831 43.0137 14.6064C42.9043 14.8252 42.8268 15.0713 42.7812 15.3447C42.7402 15.6136 42.7197 15.8962 42.7197 16.1924V16.4111C42.7197 16.7119 42.7402 16.999 42.7812 17.2725C42.8268 17.5459 42.9043 17.792 43.0137 18.0107C43.1276 18.2249 43.2848 18.3958 43.4854 18.5234C43.6904 18.651 43.9502 18.7148 44.2646 18.7148ZM48.209 16.377V16.2334C48.209 15.6911 48.2865 15.1921 48.4414 14.7363C48.5964 14.276 48.8219 13.8773 49.1182 13.54C49.4144 13.2028 49.7767 12.9408 50.2051 12.7539C50.6335 12.5625 51.1211 12.4668 51.668 12.4668C52.224 12.4668 52.7161 12.5625 53.1445 12.7539C53.5775 12.9408 53.9421 13.2028 54.2383 13.54C54.5345 13.8773 54.7601 14.276 54.915 14.7363C55.07 15.1921 55.1475 15.6911 55.1475 16.2334V16.377C55.1475 16.9147 55.07 17.4137 54.915 17.874C54.7601 18.3298 54.5345 18.7285 54.2383 19.0703C53.9421 19.4076 53.5798 19.6696 53.1514 19.8564C52.723 20.0433 52.2331 20.1367 51.6816 20.1367C51.1348 20.1367 50.6449 20.0433 50.2119 19.8564C49.779 19.6696 49.4144 19.4076 49.1182 19.0703C48.8219 18.7285 48.5964 18.3298 48.4414 17.874C48.2865 17.4137 48.209 16.9147 48.209 16.377ZM50.0137 16.2334V16.377C50.0137 16.7005 50.0456 17.0036 50.1094 17.2861C50.1732 17.5687 50.2712 17.8171 50.4033 18.0312C50.5355 18.2454 50.7064 18.4141 50.916 18.5371C51.1302 18.6556 51.3854 18.7148 51.6816 18.7148C51.9733 18.7148 52.224 18.6556 52.4336 18.5371C52.6432 18.4141 52.8141 18.2454 52.9463 18.0312C53.083 17.8171 53.1833 17.5687 53.2471 17.2861C53.3109 17.0036 53.3428 16.7005 53.3428 16.377V16.2334C53.3428 15.9144 53.3109 15.6159 53.2471 15.3379C53.1833 15.0553 53.083 14.807 52.9463 14.5928C52.8141 14.374 52.641 14.2031 52.4268 14.0801C52.2171 13.9525 51.9642 13.8887 51.668 13.8887C51.3763 13.8887 51.1257 13.9525 50.916 14.0801C50.7064 14.2031 50.5355 14.374 50.4033 14.5928C50.2712 14.807 50.1732 15.0553 50.1094 15.3379C50.0456 15.6159 50.0137 15.9144 50.0137 16.2334ZM59.8711 12.6035V20H58.0596V12.6035H59.8711ZM62.2773 12.6035V14.0117H55.6943V12.6035H62.2773ZM67.3018 18.4277V15.0166C67.3018 14.766 67.2585 14.5495 67.1719 14.3672C67.0853 14.1849 66.9531 14.0436 66.7754 13.9434C66.5977 13.8431 66.3721 13.793 66.0986 13.793C65.8571 13.793 65.6452 13.834 65.4629 13.916C65.2852 13.998 65.1484 14.1143 65.0527 14.2646C64.957 14.4105 64.9092 14.5791 64.9092 14.7705H63.0977C63.0977 14.4652 63.1706 14.1758 63.3164 13.9023C63.4622 13.6243 63.6696 13.3783 63.9385 13.1641C64.2119 12.9453 64.5378 12.7744 64.916 12.6514C65.2988 12.5283 65.7272 12.4668 66.2012 12.4668C66.7617 12.4668 67.2607 12.5625 67.6982 12.7539C68.1403 12.9408 68.4867 13.2233 68.7373 13.6016C68.9925 13.9798 69.1201 14.4561 69.1201 15.0303V18.2568C69.1201 18.626 69.1429 18.9427 69.1885 19.207C69.2386 19.4668 69.3115 19.6924 69.4072 19.8838V20H67.5684C67.4818 19.8132 67.4157 19.5762 67.3701 19.2891C67.3245 18.9974 67.3018 18.7103 67.3018 18.4277ZM67.5547 15.4951L67.5684 16.5684H66.4268C66.1442 16.5684 65.8958 16.598 65.6816 16.6572C65.4674 16.7119 65.292 16.7939 65.1553 16.9033C65.0186 17.0081 64.916 17.1357 64.8477 17.2861C64.7793 17.432 64.7451 17.5983 64.7451 17.7852C64.7451 17.9674 64.7861 18.1315 64.8682 18.2773C64.9548 18.4232 65.0778 18.5394 65.2373 18.626C65.4014 18.708 65.5928 18.749 65.8115 18.749C66.1305 18.749 66.4085 18.6852 66.6455 18.5576C66.8825 18.4255 67.0671 18.266 67.1992 18.0791C67.3314 17.8923 67.402 17.7145 67.4111 17.5459L67.9307 18.3252C67.8669 18.512 67.7712 18.7103 67.6436 18.9199C67.516 19.1296 67.3519 19.3255 67.1514 19.5078C66.9508 19.6901 66.7093 19.8405 66.4268 19.959C66.1442 20.0775 65.8161 20.1367 65.4424 20.1367C64.9639 20.1367 64.5355 20.041 64.1572 19.8496C63.779 19.6582 63.4805 19.3962 63.2617 19.0635C63.043 18.7308 62.9336 18.3525 62.9336 17.9287C62.9336 17.5368 63.0065 17.1904 63.1523 16.8896C63.2982 16.5889 63.5146 16.3359 63.8018 16.1309C64.0889 15.9212 64.4443 15.764 64.8682 15.6592C65.2965 15.5498 65.7865 15.4951 66.3379 15.4951H67.5547Z" fill="black"/>
</svg>
