<svg width="16" height="21" viewBox="0 0 16 21" fill="none" xmlns="http://www.w3.org/2000/svg">
<path d="M0 17.0823V15.0823H2V8.08228C2 6.69894 2.41667 5.46978 3.25 4.39478C4.08333 3.31978 5.16667 2.61561 6.5 2.28228V1.58228C6.5 1.16561 6.64583 0.811442 6.9375 0.519775C7.22917 0.228109 7.58333 0.0822754 8 0.0822754C8.41667 0.0822754 8.77083 0.228109 9.0625 0.519775C9.35417 0.811442 9.5 1.16561 9.5 1.58228V2.28228C10.8333 2.61561 11.9167 3.31978 12.75 4.39478C13.5833 5.46978 14 6.69894 14 8.08228V15.0823H16V17.0823H0ZM8 20.0823C7.45 20.0823 6.97917 19.8864 6.5875 19.4948C6.19583 19.1031 6 18.6323 6 18.0823H10C10 18.6323 9.80417 19.1031 9.4125 19.4948C9.02083 19.8864 8.55 20.0823 8 20.0823ZM4 15.0823H12V8.08228C12 6.98228 11.6083 6.04061 10.825 5.25728C10.0417 4.47394 9.1 4.08228 8 4.08228C6.9 4.08228 5.95833 4.47394 5.175 5.25728C4.39167 6.04061 4 6.98228 4 8.08228V15.0823Z" />
</svg>
