<svg width="104" height="42" viewBox="0 0 104 42" fill="none" xmlns="http://www.w3.org/2000/svg">
<rect width="104" height="42" rx="14" fill="#ED3437"/>
<path d="M36.8584 21.5635H34.3154L34.3018 20.2373H36.4824C36.8561 20.2373 37.1683 20.1849 37.4189 20.0801C37.6696 19.9753 37.8587 19.8226 37.9863 19.6221C38.1185 19.4215 38.1846 19.1777 38.1846 18.8906C38.1846 18.5716 38.123 18.3118 38 18.1113C37.8815 17.9108 37.6947 17.765 37.4395 17.6738C37.1842 17.5781 36.8607 17.5303 36.4688 17.5303H34.9238V26H33.0439V16.0469H36.4688C37.0339 16.0469 37.5374 16.1016 37.9795 16.2109C38.4261 16.3158 38.8044 16.4798 39.1143 16.7031C39.4242 16.9264 39.6589 17.2067 39.8184 17.5439C39.9824 17.8812 40.0645 18.2822 40.0645 18.7471C40.0645 19.1572 39.9688 19.5355 39.7773 19.8818C39.5905 20.2236 39.3011 20.5016 38.9092 20.7158C38.5218 20.93 38.0296 21.0531 37.4326 21.085L36.8584 21.5635ZM36.7764 26H33.7617L34.5479 24.5234H36.7764C37.1501 24.5234 37.4577 24.4619 37.6992 24.3389C37.9453 24.2158 38.1276 24.0472 38.2461 23.833C38.3691 23.6143 38.4307 23.3636 38.4307 23.0811C38.4307 22.7712 38.376 22.5023 38.2666 22.2744C38.1618 22.0465 37.9932 21.8711 37.7607 21.748C37.5329 21.625 37.2321 21.5635 36.8584 21.5635H34.9033L34.917 20.2373H37.4053L37.8359 20.75C38.4102 20.7546 38.8773 20.8685 39.2373 21.0918C39.6019 21.3151 39.8708 21.6022 40.0439 21.9531C40.2171 22.304 40.3037 22.6823 40.3037 23.0879C40.3037 23.7259 40.1647 24.2614 39.8867 24.6943C39.6133 25.1273 39.2122 25.4531 38.6836 25.6719C38.1595 25.8906 37.5238 26 36.7764 26ZM41.4727 22.377V22.2334C41.4727 21.6911 41.5501 21.1921 41.7051 20.7363C41.86 20.276 42.0856 19.8773 42.3818 19.54C42.6781 19.2028 43.0404 18.9408 43.4688 18.7539C43.8971 18.5625 44.3848 18.4668 44.9316 18.4668C45.4876 18.4668 45.9798 18.5625 46.4082 18.7539C46.8411 18.9408 47.2057 19.2028 47.502 19.54C47.7982 19.8773 48.0238 20.276 48.1787 20.7363C48.3337 21.1921 48.4111 21.6911 48.4111 22.2334V22.377C48.4111 22.9147 48.3337 23.4137 48.1787 23.874C48.0238 24.3298 47.7982 24.7285 47.502 25.0703C47.2057 25.4076 46.8434 25.6696 46.415 25.8564C45.9867 26.0433 45.4967 26.1367 44.9453 26.1367C44.3984 26.1367 43.9085 26.0433 43.4756 25.8564C43.0426 25.6696 42.6781 25.4076 42.3818 25.0703C42.0856 24.7285 41.86 24.3298 41.7051 23.874C41.5501 23.4137 41.4727 22.9147 41.4727 22.377ZM43.2773 22.2334V22.377C43.2773 22.7005 43.3092 23.0036 43.373 23.2861C43.4368 23.5687 43.5348 23.8171 43.667 24.0312C43.7992 24.2454 43.9701 24.4141 44.1797 24.5371C44.3939 24.6556 44.6491 24.7148 44.9453 24.7148C45.237 24.7148 45.4876 24.6556 45.6973 24.5371C45.9069 24.4141 46.0778 24.2454 46.21 24.0312C46.3467 23.8171 46.4469 23.5687 46.5107 23.2861C46.5745 23.0036 46.6064 22.7005 46.6064 22.377V22.2334C46.6064 21.9144 46.5745 21.6159 46.5107 21.3379C46.4469 21.0553 46.3467 20.807 46.21 20.5928C46.0778 20.374 45.9046 20.2031 45.6904 20.0801C45.4808 19.9525 45.2279 19.8887 44.9316 19.8887C44.64 19.8887 44.3893 19.9525 44.1797 20.0801C43.9701 20.2031 43.7992 20.374 43.667 20.5928C43.5348 20.807 43.4368 21.0553 43.373 21.3379C43.3092 21.6159 43.2773 21.9144 43.2773 22.2334ZM51.5488 23.4229L54.2422 18.6035H56.0537V26H54.2422V21.1738L51.5488 26H49.7373V18.6035H51.5488V23.4229ZM53.9072 15.6982H55.2197C55.2197 16.0811 55.1263 16.4206 54.9395 16.7168C54.7526 17.013 54.486 17.2454 54.1396 17.4141C53.7979 17.5781 53.3923 17.6602 52.9229 17.6602C52.2165 17.6602 51.6559 17.4779 51.2412 17.1133C50.8265 16.7487 50.6191 16.277 50.6191 15.6982H51.9316C51.9316 15.9398 52.0068 16.1562 52.1572 16.3477C52.3076 16.5391 52.5628 16.6348 52.9229 16.6348C53.2829 16.6348 53.5358 16.5391 53.6816 16.3477C53.832 16.1562 53.9072 15.9398 53.9072 15.6982ZM61.2832 18.6035V26H59.4717V18.6035H61.2832ZM63.6895 18.6035V20.0117H57.1064V18.6035H63.6895ZM66.5742 23.4229L69.2676 18.6035H71.0791V26H69.2676V21.1738L66.5742 26H64.7627V18.6035H66.5742V23.4229Z" fill="white"/>
</svg>
