<svg width="16" height="17" viewBox="0 0 16 17" fill="none" xmlns="http://www.w3.org/2000/svg">
<path d="M8 8.08228C6.9 8.08228 5.95833 7.69061 5.175 6.90728C4.39167 6.12394 4 5.18228 4 4.08228C4 2.98228 4.39167 2.04061 5.175 1.25728C5.95833 0.473942 6.9 0.0822754 8 0.0822754C9.1 0.0822754 10.0417 0.473942 10.825 1.25728C11.6083 2.04061 12 2.98228 12 4.08228C12 5.18228 11.6083 6.12394 10.825 6.90728C10.0417 7.69061 9.1 8.08228 8 8.08228ZM0 16.0823V13.2823C0 12.7156 0.145833 12.1948 0.4375 11.7198C0.729167 11.2448 1.11667 10.8823 1.6 10.6323C2.63333 10.1156 3.68333 9.72811 4.75 9.46978C5.81667 9.21144 6.9 9.08228 8 9.08228C9.1 9.08228 10.1833 9.21144 11.25 9.46978C12.3167 9.72811 13.3667 10.1156 14.4 10.6323C14.8833 10.8823 15.2708 11.2448 15.5625 11.7198C15.8542 12.1948 16 12.7156 16 13.2823V16.0823H8H0ZM2 14.0823V15.5823V16.0823H8H14V14.0823V13.2823C14 13.0989 13.9542 12.9323 13.8625 12.7823C13.7708 12.6323 13.65 12.5156 13.5 12.4323C12.6 11.9823 11.6917 11.6448 10.775 11.4198C9.85833 11.1948 8.93333 11.0823 8 11.0823C7.06667 11.0823 6.14167 11.1948 5.225 11.4198C4.30833 11.6448 3.4 11.9823 2.5 12.4323C2.35 12.5156 2.22917 12.6323 2.1375 12.7823C2.04583 12.9323 2 13.0989 2 13.2823V14.0823ZM8 6.08228C8.55 6.08228 9.02083 5.88644 9.4125 5.49478C9.80417 5.10311 10 4.63228 10 4.08228C10 3.53228 9.80417 3.06144 9.4125 2.66978C9.02083 2.27811 8.55 2.08228 8 2.08228C7.45 2.08228 6.97917 2.27811 6.5875 2.66978C6.19583 3.06144 6 3.53228 6 4.08228C6 4.63228 6.19583 5.10311 6.5875 5.49478C6.97917 5.88644 7.45 6.08228 8 6.08228Z"/>
</svg>
