<svg width="16" height="16" viewBox="0 0 16 16" fill="none" xmlns="http://www.w3.org/2000/svg">
<path fill-rule="evenodd" clip-rule="evenodd" d="M6.81199 0.151367C5.74819 0.151458 4.69982 0.405948 3.75437 0.893606C2.80892 1.38126 1.9938 2.08795 1.37701 2.9547C0.760221 3.82145 0.359652 4.82314 0.208722 5.87618C0.0577917 6.92923 0.160878 8.0031 0.509379 9.00821C0.85788 10.0133 1.44169 10.9205 2.2121 11.6541C2.98252 12.3877 3.91719 12.9264 4.93815 13.2253C5.9591 13.5242 7.03673 13.5746 8.08113 13.3723C9.12553 13.17 10.1064 12.7209 10.9419 12.0624L13.8083 14.9287C13.9563 15.0717 14.1545 15.1508 14.3603 15.149C14.5661 15.1472 14.763 15.0647 14.9085 14.9192C15.054 14.7737 15.1365 14.5768 15.1383 14.371C15.1401 14.1652 15.061 13.967 14.918 13.819L12.0517 10.9526C12.8272 9.9689 13.31 8.78673 13.4449 7.54141C13.5799 6.29609 13.3615 5.03793 12.8148 3.91093C12.2681 2.78392 11.4151 1.83361 10.3535 1.16873C9.29194 0.503854 8.0646 0.151283 6.81199 0.151367ZM1.71039 6.82269C1.71039 5.46966 2.24788 4.17205 3.20462 3.21532C4.16135 2.25858 5.45896 1.72109 6.81199 1.72109C8.16502 1.72109 9.46264 2.25858 10.4194 3.21532C11.3761 4.17205 11.9136 5.46966 11.9136 6.82269C11.9136 8.17572 11.3761 9.47333 10.4194 10.4301C9.46264 11.3868 8.16502 11.9243 6.81199 11.9243C5.45896 11.9243 4.16135 11.3868 3.20462 10.4301C2.24788 9.47333 1.71039 8.17572 1.71039 6.82269Z" fill="black"/>
</svg>
