<svg width="509" height="42" viewBox="0 0 509 42" fill="none" xmlns="http://www.w3.org/2000/svg">
<rect x="0.407715" width="508" height="42" rx="14" fill="#DBDCDD"/>
<path d="M27.6665 14.7031V27.5H25.979V16.0918H19.6685V27.5H17.9722V14.7031H27.6665ZM30.0659 22.8506V22.6484C30.0659 21.9629 30.1655 21.3271 30.3647 20.7412C30.564 20.1494 30.8511 19.6367 31.2261 19.2031C31.6011 18.7637 32.0552 18.4238 32.5884 18.1836C33.1216 17.9375 33.7192 17.8145 34.3813 17.8145C35.0493 17.8145 35.6499 17.9375 36.1831 18.1836C36.7222 18.4238 37.1792 18.7637 37.5542 19.2031C37.9351 19.6367 38.2251 20.1494 38.4243 20.7412C38.6235 21.3271 38.7231 21.9629 38.7231 22.6484V22.8506C38.7231 23.5361 38.6235 24.1719 38.4243 24.7578C38.2251 25.3438 37.9351 25.8564 37.5542 26.2959C37.1792 26.7295 36.7251 27.0693 36.1919 27.3154C35.6646 27.5557 35.0669 27.6758 34.3989 27.6758C33.731 27.6758 33.1304 27.5557 32.5972 27.3154C32.064 27.0693 31.6069 26.7295 31.2261 26.2959C30.8511 25.8564 30.564 25.3438 30.3647 24.7578C30.1655 24.1719 30.0659 23.5361 30.0659 22.8506ZM31.6919 22.6484V22.8506C31.6919 23.3252 31.7476 23.7734 31.8589 24.1953C31.9702 24.6113 32.1372 24.9805 32.3599 25.3027C32.5884 25.625 32.8726 25.8799 33.2124 26.0674C33.5522 26.249 33.9478 26.3398 34.3989 26.3398C34.8442 26.3398 35.2339 26.249 35.5679 26.0674C35.9077 25.8799 36.189 25.625 36.4116 25.3027C36.6343 24.9805 36.8013 24.6113 36.9126 24.1953C37.0298 23.7734 37.0884 23.3252 37.0884 22.8506V22.6484C37.0884 22.1797 37.0298 21.7373 36.9126 21.3213C36.8013 20.8994 36.6313 20.5273 36.4028 20.2051C36.1802 19.877 35.8989 19.6191 35.5591 19.4316C35.2251 19.2441 34.8325 19.1504 34.3813 19.1504C33.936 19.1504 33.5435 19.2441 33.2036 19.4316C32.8696 19.6191 32.5884 19.877 32.3599 20.2051C32.1372 20.5273 31.9702 20.8994 31.8589 21.3213C31.7476 21.7373 31.6919 22.1797 31.6919 22.6484ZM42.52 24.9248L46.9058 17.9902H48.5405V27.5H46.9058V20.5654L42.52 27.5H40.9028V17.9902H42.52V24.9248ZM54.9565 26.3398C55.3433 26.3398 55.7007 26.2607 56.0288 26.1025C56.3569 25.9443 56.6265 25.7275 56.8374 25.4521C57.0483 25.1709 57.1685 24.8516 57.1978 24.4941H58.7446C58.7153 25.0566 58.5249 25.5811 58.1733 26.0674C57.8276 26.5479 57.3735 26.9375 56.811 27.2363C56.2485 27.5293 55.6304 27.6758 54.9565 27.6758C54.2417 27.6758 53.6177 27.5498 53.0845 27.2979C52.5571 27.0459 52.1177 26.7002 51.7661 26.2607C51.4204 25.8213 51.1597 25.3174 50.9839 24.749C50.814 24.1748 50.729 23.5684 50.729 22.9297V22.5605C50.729 21.9219 50.814 21.3184 50.9839 20.75C51.1597 20.1758 51.4204 19.6689 51.7661 19.2295C52.1177 18.79 52.5571 18.4443 53.0845 18.1924C53.6177 17.9404 54.2417 17.8145 54.9565 17.8145C55.7007 17.8145 56.3511 17.9668 56.9077 18.2715C57.4644 18.5703 57.9009 18.9805 58.2173 19.502C58.5396 20.0176 58.7153 20.6035 58.7446 21.2598H57.1978C57.1685 20.8672 57.0571 20.5127 56.8638 20.1963C56.6763 19.8799 56.4185 19.6279 56.0903 19.4404C55.7681 19.2471 55.3901 19.1504 54.9565 19.1504C54.4585 19.1504 54.0396 19.25 53.6997 19.4492C53.3657 19.6426 53.0991 19.9062 52.8999 20.2402C52.7065 20.5684 52.5659 20.9346 52.478 21.3389C52.396 21.7373 52.355 22.1445 52.355 22.5605V22.9297C52.355 23.3457 52.396 23.7559 52.478 24.1602C52.5601 24.5645 52.6978 24.9307 52.8911 25.2588C53.0903 25.5869 53.3569 25.8506 53.6909 26.0498C54.0308 26.2432 54.4526 26.3398 54.9565 26.3398ZM62.3394 17.9902V27.5H60.7134V17.9902H62.3394ZM68.5796 17.9902L64.0708 23.4395H61.7944L61.5483 22.0156H63.4116L66.6021 17.9902H68.5796ZM66.8306 27.5L63.3325 23.1934L64.3784 22.0156L68.896 27.5H66.8306Z" fill="black"/>
<path fill-rule="evenodd" clip-rule="evenodd" d="M487.812 13.1514C486.748 13.1515 485.7 13.4059 484.754 13.8936C483.809 14.3813 482.994 15.0879 482.377 15.9547C481.76 16.8215 481.36 17.8231 481.209 18.8762C481.058 19.9292 481.161 21.0031 481.51 22.0082C481.858 23.0133 482.442 23.9205 483.212 24.6541C483.983 25.3877 484.917 25.9264 485.938 26.2253C486.959 26.5242 488.037 26.5746 489.081 26.3723C490.126 26.17 491.107 25.7209 491.942 25.0624L494.808 27.9287C494.956 28.0717 495.155 28.1508 495.36 28.149C495.566 28.1472 495.763 28.0647 495.909 27.9192C496.054 27.7737 496.137 27.5768 496.138 27.371C496.14 27.1652 496.061 26.967 495.918 26.819L493.052 23.9526C493.827 22.9689 494.31 21.7867 494.445 20.5414C494.58 19.2961 494.362 18.0379 493.815 16.9109C493.268 15.7839 492.415 14.8336 491.354 14.1687C490.292 13.5039 489.065 13.1513 487.812 13.1514ZM482.711 19.8227C482.711 18.4697 483.248 17.1721 484.205 16.2153C485.161 15.2586 486.459 14.7211 487.812 14.7211C489.165 14.7211 490.463 15.2586 491.419 16.2153C492.376 17.1721 492.914 18.4697 492.914 19.8227C492.914 21.1757 492.376 22.4733 491.419 23.4301C490.463 24.3868 489.165 24.9243 487.812 24.9243C486.459 24.9243 485.161 24.3868 484.205 23.4301C483.248 22.4733 482.711 21.1757 482.711 19.8227Z" fill="black"/>
</svg>
