<svg width="81" height="30" viewBox="0 0 81 30" fill="none" xmlns="http://www.w3.org/2000/svg">
<rect width="81" height="30" rx="10" fill="#EAEAEA"/>
<path d="M25.0234 10.0469V20H23.1436V11.5303H18.9326V20H17.0527V10.0469H25.0234ZM26.5 16.377V16.2334C26.5 15.6911 26.5775 15.1921 26.7324 14.7363C26.8874 14.276 27.113 13.8773 27.4092 13.54C27.7054 13.2028 28.0677 12.9408 28.4961 12.7539C28.9245 12.5625 29.4121 12.4668 29.959 12.4668C30.515 12.4668 31.0072 12.5625 31.4355 12.7539C31.8685 12.9408 32.2331 13.2028 32.5293 13.54C32.8255 13.8773 33.0511 14.276 33.2061 14.7363C33.361 15.1921 33.4385 15.6911 33.4385 16.2334V16.377C33.4385 16.9147 33.361 17.4137 33.2061 17.874C33.0511 18.3298 32.8255 18.7285 32.5293 19.0703C32.2331 19.4076 31.8708 19.6696 31.4424 19.8564C31.014 20.0433 30.5241 20.1367 29.9727 20.1367C29.4258 20.1367 28.9359 20.0433 28.5029 19.8564C28.07 19.6696 27.7054 19.4076 27.4092 19.0703C27.113 18.7285 26.8874 18.3298 26.7324 17.874C26.5775 17.4137 26.5 16.9147 26.5 16.377ZM28.3047 16.2334V16.377C28.3047 16.7005 28.3366 17.0036 28.4004 17.2861C28.4642 17.5687 28.5622 17.8171 28.6943 18.0312C28.8265 18.2454 28.9974 18.4141 29.207 18.5371C29.4212 18.6556 29.6764 18.7148 29.9727 18.7148C30.2643 18.7148 30.515 18.6556 30.7246 18.5371C30.9342 18.4141 31.1051 18.2454 31.2373 18.0312C31.374 17.8171 31.4743 17.5687 31.5381 17.2861C31.6019 17.0036 31.6338 16.7005 31.6338 16.377V16.2334C31.6338 15.9144 31.6019 15.6159 31.5381 15.3379C31.4743 15.0553 31.374 14.807 31.2373 14.5928C31.1051 14.374 30.932 14.2031 30.7178 14.0801C30.5081 13.9525 30.2552 13.8887 29.959 13.8887C29.6673 13.8887 29.4167 13.9525 29.207 14.0801C28.9974 14.2031 28.8265 14.374 28.6943 14.5928C28.5622 14.807 28.4642 15.0553 28.4004 15.3379C28.3366 15.6159 28.3047 15.9144 28.3047 16.2334ZM38.0732 20.1367C37.5127 20.1367 37.0091 20.0456 36.5625 19.8633C36.1159 19.681 35.7354 19.4281 35.4209 19.1045C35.111 18.7764 34.8717 18.3958 34.7031 17.9629C34.5391 17.5254 34.457 17.056 34.457 16.5547V16.2812C34.457 15.7116 34.5391 15.1943 34.7031 14.7295C34.8672 14.2601 35.0996 13.8568 35.4004 13.5195C35.7012 13.1823 36.0612 12.9225 36.4805 12.7402C36.8997 12.5579 37.3623 12.4668 37.8682 12.4668C38.3923 12.4668 38.8548 12.5557 39.2559 12.7334C39.6569 12.9066 39.9919 13.1527 40.2607 13.4717C40.5296 13.7907 40.7324 14.1735 40.8691 14.6201C41.0059 15.0622 41.0742 15.5521 41.0742 16.0898V16.8486H35.2773V15.6045H39.2969V15.4678C39.2878 15.1807 39.2331 14.9186 39.1328 14.6816C39.0326 14.4401 38.8776 14.2487 38.668 14.1074C38.4583 13.9616 38.1872 13.8887 37.8545 13.8887C37.5856 13.8887 37.3509 13.9479 37.1504 14.0664C36.9544 14.1803 36.7904 14.3444 36.6582 14.5586C36.5306 14.7682 36.4349 15.0189 36.3711 15.3105C36.3073 15.6022 36.2754 15.9258 36.2754 16.2812V16.5547C36.2754 16.8646 36.3164 17.1517 36.3984 17.416C36.485 17.6803 36.6104 17.9105 36.7744 18.1064C36.943 18.2979 37.1436 18.4482 37.376 18.5576C37.613 18.6624 37.8818 18.7148 38.1826 18.7148C38.5609 18.7148 38.9027 18.6419 39.208 18.4961C39.5179 18.3457 39.7868 18.1247 40.0146 17.833L40.9238 18.7764C40.7689 19.0042 40.5592 19.223 40.2949 19.4326C40.0352 19.6423 39.7207 19.8132 39.3516 19.9453C38.9824 20.0729 38.5563 20.1367 38.0732 20.1367ZM45.4561 16.4727H44.0137V15.6113H45.1143C45.3831 15.6113 45.5973 15.5749 45.7568 15.502C45.9209 15.429 46.0371 15.3265 46.1055 15.1943C46.1784 15.0622 46.2148 14.9095 46.2148 14.7363C46.2148 14.5814 46.1807 14.4355 46.1123 14.2988C46.0439 14.1576 45.93 14.0436 45.7705 13.957C45.611 13.8659 45.39 13.8203 45.1074 13.8203C44.875 13.8203 44.6676 13.8568 44.4854 13.9297C44.3031 14.0026 44.1595 14.1051 44.0547 14.2373C43.9499 14.3695 43.8975 14.5267 43.8975 14.709H42.0859C42.0859 14.2441 42.2181 13.8454 42.4824 13.5127C42.7513 13.18 43.109 12.9248 43.5557 12.7471C44.0023 12.5648 44.4922 12.4736 45.0254 12.4736C45.4857 12.4736 45.9004 12.5215 46.2695 12.6172C46.6387 12.7083 46.9531 12.8451 47.2129 13.0273C47.4727 13.2096 47.6732 13.4352 47.8145 13.7041C47.9557 13.9684 48.0264 14.276 48.0264 14.627C48.0264 14.8776 47.9671 15.1146 47.8486 15.3379C47.7301 15.5612 47.5592 15.7594 47.3359 15.9326C47.1126 16.1012 46.8415 16.2334 46.5225 16.3291C46.208 16.4248 45.8525 16.4727 45.4561 16.4727ZM44.0137 15.9805H45.4561C45.8981 15.9805 46.2855 16.0238 46.6182 16.1104C46.9554 16.1924 47.238 16.3154 47.4658 16.4795C47.6937 16.6436 47.8646 16.8464 47.9785 17.0879C48.097 17.3249 48.1562 17.5983 48.1562 17.9082C48.1562 18.2591 48.0788 18.5736 47.9238 18.8516C47.7734 19.125 47.5592 19.3574 47.2812 19.5488C47.0033 19.7402 46.6729 19.8861 46.29 19.9863C45.9072 20.0866 45.4857 20.1367 45.0254 20.1367C44.5286 20.1367 44.0456 20.0547 43.5762 19.8906C43.1113 19.7266 42.7262 19.4736 42.4209 19.1318C42.1201 18.79 41.9697 18.3503 41.9697 17.8125H43.7812C43.7812 17.9857 43.8337 18.1475 43.9385 18.2979C44.0433 18.4482 44.1937 18.569 44.3896 18.6602C44.5902 18.7467 44.8317 18.79 45.1143 18.79C45.4014 18.79 45.6361 18.7445 45.8184 18.6533C46.0007 18.5622 46.1328 18.4414 46.2148 18.291C46.3014 18.1361 46.3447 17.9743 46.3447 17.8057C46.3447 17.5732 46.2992 17.3864 46.208 17.2451C46.1214 17.0993 45.9847 16.9922 45.7979 16.9238C45.6156 16.8555 45.3877 16.8213 45.1143 16.8213H44.0137V15.9805ZM50.7949 12.6035H52.5996L52.5312 15.1465C52.5085 15.9167 52.4173 16.582 52.2578 17.1426C52.1029 17.6986 51.8955 18.1657 51.6357 18.5439C51.3805 18.9222 51.0889 19.2275 50.7607 19.46C50.4372 19.6924 50.0977 19.8724 49.7422 20H49.3115L49.3047 18.5918L49.5166 18.5781C49.7308 18.3503 49.9108 18.127 50.0566 17.9082C50.207 17.6849 50.3278 17.4456 50.4189 17.1904C50.5101 16.9352 50.5785 16.6436 50.624 16.3154C50.6742 15.9827 50.7061 15.5931 50.7197 15.1465L50.7949 12.6035ZM51.2803 12.6035H56.0723V20H54.2676V14.0869H51.2803V12.6035ZM48.9014 18.5781H57.1045V22.2148H55.2998V20H50.7402V22.2148H48.8945L48.9014 18.5781ZM62.2861 18.4277V15.0166C62.2861 14.766 62.2428 14.5495 62.1562 14.3672C62.0697 14.1849 61.9375 14.0436 61.7598 13.9434C61.582 13.8431 61.3564 13.793 61.083 13.793C60.8415 13.793 60.6296 13.834 60.4473 13.916C60.2695 13.998 60.1328 14.1143 60.0371 14.2646C59.9414 14.4105 59.8936 14.5791 59.8936 14.7705H58.082C58.082 14.4652 58.1549 14.1758 58.3008 13.9023C58.4466 13.6243 58.654 13.3783 58.9229 13.1641C59.1963 12.9453 59.5221 12.7744 59.9004 12.6514C60.2832 12.5283 60.7116 12.4668 61.1855 12.4668C61.7461 12.4668 62.2451 12.5625 62.6826 12.7539C63.1247 12.9408 63.471 13.2233 63.7217 13.6016C63.9769 13.9798 64.1045 14.4561 64.1045 15.0303V18.2568C64.1045 18.626 64.1273 18.9427 64.1729 19.207C64.223 19.4668 64.2959 19.6924 64.3916 19.8838V20H62.5527C62.4661 19.8132 62.4001 19.5762 62.3545 19.2891C62.3089 18.9974 62.2861 18.7103 62.2861 18.4277ZM62.5391 15.4951L62.5527 16.5684H61.4111C61.1286 16.5684 60.8802 16.598 60.666 16.6572C60.4518 16.7119 60.2764 16.7939 60.1396 16.9033C60.0029 17.0081 59.9004 17.1357 59.832 17.2861C59.7637 17.432 59.7295 17.5983 59.7295 17.7852C59.7295 17.9674 59.7705 18.1315 59.8525 18.2773C59.9391 18.4232 60.0622 18.5394 60.2217 18.626C60.3857 18.708 60.5771 18.749 60.7959 18.749C61.1149 18.749 61.3929 18.6852 61.6299 18.5576C61.8669 18.4255 62.0514 18.266 62.1836 18.0791C62.3158 17.8923 62.3864 17.7145 62.3955 17.5459L62.915 18.3252C62.8512 18.512 62.7555 18.7103 62.6279 18.9199C62.5003 19.1296 62.3363 19.3255 62.1357 19.5078C61.9352 19.6901 61.6937 19.8405 61.4111 19.959C61.1286 20.0775 60.8005 20.1367 60.4268 20.1367C59.9482 20.1367 59.5199 20.041 59.1416 19.8496C58.7633 19.6582 58.4648 19.3962 58.2461 19.0635C58.0273 18.7308 57.918 18.3525 57.918 17.9287C57.918 17.5368 57.9909 17.1904 58.1367 16.8896C58.2826 16.5889 58.499 16.3359 58.7861 16.1309C59.0732 15.9212 59.4287 15.764 59.8525 15.6592C60.2809 15.5498 60.7708 15.4951 61.3223 15.4951H62.5391Z" fill="black"/>
</svg>
