<svg width="103" height="30" viewBox="0 0 103 30" fill="none" xmlns="http://www.w3.org/2000/svg">
<rect width="103" height="30" rx="10" fill="#EAEAEA"/>
<path d="M20.8818 16.3701H18.3184V14.8936H20.8818C21.3011 14.8936 21.6406 14.8252 21.9004 14.6885C22.1647 14.5472 22.3584 14.3558 22.4814 14.1143C22.6045 13.8682 22.666 13.5879 22.666 13.2734C22.666 12.9681 22.6045 12.6833 22.4814 12.4189C22.3584 12.1546 22.1647 11.9404 21.9004 11.7764C21.6406 11.6123 21.3011 11.5303 20.8818 11.5303H18.9336V20H17.0537V10.0469H20.8818C21.6566 10.0469 22.3174 10.1859 22.8643 10.4639C23.4157 10.7373 23.835 11.1178 24.1221 11.6055C24.4137 12.0885 24.5596 12.64 24.5596 13.2598C24.5596 13.9023 24.4137 14.4561 24.1221 14.9209C23.835 15.3857 23.4157 15.7435 22.8643 15.9941C22.3174 16.2448 21.6566 16.3701 20.8818 16.3701ZM28.1758 19.1797L30.1582 12.6035H32.0928L29.126 21.1211C29.0576 21.3034 28.9688 21.5016 28.8594 21.7158C28.7546 21.93 28.6133 22.1328 28.4355 22.3242C28.2578 22.5202 28.0345 22.6797 27.7656 22.8027C27.5013 22.9258 27.18 22.9873 26.8018 22.9873C26.6377 22.9873 26.4919 22.9759 26.3643 22.9531C26.2367 22.9303 26.1022 22.9007 25.9609 22.8643V21.5107C26.0065 21.5153 26.0589 21.5176 26.1182 21.5176C26.182 21.5221 26.2367 21.5244 26.2822 21.5244C26.5465 21.5244 26.7653 21.4925 26.9385 21.4287C27.1117 21.3695 27.2507 21.2715 27.3555 21.1348C27.4648 21.0026 27.556 20.8294 27.6289 20.6152L28.1758 19.1797ZM27.1982 12.6035L28.873 18.0518L29.167 19.959L27.9229 20.1846L25.25 12.6035H27.1982ZM34.8955 12.6035V20H33.0908V12.6035H34.8955ZM39.7148 12.6035L36.4541 17.1426H34.5332L34.3076 15.4883H35.6406L37.4385 12.6035H39.7148ZM37.5479 20L35.5244 16.8281L37.0283 15.8848L39.9473 20H37.5479ZM40.1797 16.377V16.2334C40.1797 15.6911 40.2572 15.1921 40.4121 14.7363C40.5671 14.276 40.7926 13.8773 41.0889 13.54C41.3851 13.2028 41.7474 12.9408 42.1758 12.7539C42.6042 12.5625 43.0918 12.4668 43.6387 12.4668C44.1947 12.4668 44.6868 12.5625 45.1152 12.7539C45.5482 12.9408 45.9128 13.2028 46.209 13.54C46.5052 13.8773 46.7308 14.276 46.8857 14.7363C47.0407 15.1921 47.1182 15.6911 47.1182 16.2334V16.377C47.1182 16.9147 47.0407 17.4137 46.8857 17.874C46.7308 18.3298 46.5052 18.7285 46.209 19.0703C45.9128 19.4076 45.5505 19.6696 45.1221 19.8564C44.6937 20.0433 44.2038 20.1367 43.6523 20.1367C43.1055 20.1367 42.6156 20.0433 42.1826 19.8564C41.7497 19.6696 41.3851 19.4076 41.0889 19.0703C40.7926 18.7285 40.5671 18.3298 40.4121 17.874C40.2572 17.4137 40.1797 16.9147 40.1797 16.377ZM41.9844 16.2334V16.377C41.9844 16.7005 42.0163 17.0036 42.0801 17.2861C42.1439 17.5687 42.2419 17.8171 42.374 18.0312C42.5062 18.2454 42.6771 18.4141 42.8867 18.5371C43.1009 18.6556 43.3561 18.7148 43.6523 18.7148C43.944 18.7148 44.1947 18.6556 44.4043 18.5371C44.6139 18.4141 44.7848 18.2454 44.917 18.0312C45.0537 17.8171 45.154 17.5687 45.2178 17.2861C45.2816 17.0036 45.3135 16.7005 45.3135 16.377V16.2334C45.3135 15.9144 45.2816 15.6159 45.2178 15.3379C45.154 15.0553 45.0537 14.807 44.917 14.5928C44.7848 14.374 44.6117 14.2031 44.3975 14.0801C44.1878 13.9525 43.9349 13.8887 43.6387 13.8887C43.347 13.8887 43.0964 13.9525 42.8867 14.0801C42.6771 14.2031 42.5062 14.374 42.374 14.5928C42.2419 14.807 42.1439 15.0553 42.0801 15.3379C42.0163 15.6159 41.9844 15.9144 41.9844 16.2334ZM49.2715 12.6035H51.0762L51.0078 15.1465C50.985 15.9167 50.8939 16.582 50.7344 17.1426C50.5794 17.6986 50.3721 18.1657 50.1123 18.5439C49.8571 18.9222 49.5654 19.2275 49.2373 19.46C48.9137 19.6924 48.5742 19.8724 48.2188 20H47.7881L47.7812 18.5918L47.9932 18.5781C48.2074 18.3503 48.3874 18.127 48.5332 17.9082C48.6836 17.6849 48.8044 17.4456 48.8955 17.1904C48.9867 16.9352 49.055 16.6436 49.1006 16.3154C49.1507 15.9827 49.1826 15.5931 49.1963 15.1465L49.2715 12.6035ZM49.7568 12.6035H54.5488V20H52.7441V14.0869H49.7568V12.6035ZM47.3779 18.5781H55.5811V22.2148H53.7764V20H49.2168V22.2148H47.3711L47.3779 18.5781ZM60.0107 20.1367C59.4502 20.1367 58.9466 20.0456 58.5 19.8633C58.0534 19.681 57.6729 19.4281 57.3584 19.1045C57.0485 18.7764 56.8092 18.3958 56.6406 17.9629C56.4766 17.5254 56.3945 17.056 56.3945 16.5547V16.2812C56.3945 15.7116 56.4766 15.1943 56.6406 14.7295C56.8047 14.2601 57.0371 13.8568 57.3379 13.5195C57.6387 13.1823 57.9987 12.9225 58.418 12.7402C58.8372 12.5579 59.2998 12.4668 59.8057 12.4668C60.3298 12.4668 60.7923 12.5557 61.1934 12.7334C61.5944 12.9066 61.9294 13.1527 62.1982 13.4717C62.4671 13.7907 62.6699 14.1735 62.8066 14.6201C62.9434 15.0622 63.0117 15.5521 63.0117 16.0898V16.8486H57.2148V15.6045H61.2344V15.4678C61.2253 15.1807 61.1706 14.9186 61.0703 14.6816C60.9701 14.4401 60.8151 14.2487 60.6055 14.1074C60.3958 13.9616 60.1247 13.8887 59.792 13.8887C59.5231 13.8887 59.2884 13.9479 59.0879 14.0664C58.8919 14.1803 58.7279 14.3444 58.5957 14.5586C58.4681 14.7682 58.3724 15.0189 58.3086 15.3105C58.2448 15.6022 58.2129 15.9258 58.2129 16.2812V16.5547C58.2129 16.8646 58.2539 17.1517 58.3359 17.416C58.4225 17.6803 58.5479 17.9105 58.7119 18.1064C58.8805 18.2979 59.0811 18.4482 59.3135 18.5576C59.5505 18.6624 59.8193 18.7148 60.1201 18.7148C60.4984 18.7148 60.8402 18.6419 61.1455 18.4961C61.4554 18.3457 61.7243 18.1247 61.9521 17.833L62.8613 18.7764C62.7064 19.0042 62.4967 19.223 62.2324 19.4326C61.9727 19.6423 61.6582 19.8132 61.2891 19.9453C60.9199 20.0729 60.4938 20.1367 60.0107 20.1367ZM69.1914 12.6035V14.0322H65.5684V12.6035H69.1914ZM70.5518 12.6035V20H68.7471V12.6035H70.5518ZM65.1172 12.6035H66.9014L66.7031 16.2949C66.6712 16.8372 66.6143 17.3135 66.5322 17.7236C66.4502 18.1292 66.3408 18.4779 66.2041 18.7695C66.0674 19.0566 65.901 19.2913 65.7051 19.4736C65.5091 19.6559 65.2812 19.7904 65.0215 19.877C64.7663 19.959 64.4792 20 64.1602 20H63.6064L63.5859 18.5439L63.8457 18.5234C64.0052 18.5098 64.1419 18.4665 64.2559 18.3936C64.3743 18.3206 64.4746 18.2158 64.5566 18.0791C64.6432 17.9424 64.7139 17.7669 64.7686 17.5527C64.8278 17.334 64.8734 17.0788 64.9053 16.7871C64.9417 16.4909 64.9668 16.1491 64.9805 15.7617L65.1172 12.6035ZM74.0312 17.4229L76.7246 12.6035H78.5361V20H76.7246V15.1738L74.0312 20H72.2197V12.6035H74.0312V17.4229ZM83.499 20.1367C82.9385 20.1367 82.4349 20.0456 81.9883 19.8633C81.5417 19.681 81.1611 19.4281 80.8467 19.1045C80.5368 18.7764 80.2975 18.3958 80.1289 17.9629C79.9648 17.5254 79.8828 17.056 79.8828 16.5547V16.2812C79.8828 15.7116 79.9648 15.1943 80.1289 14.7295C80.293 14.2601 80.5254 13.8568 80.8262 13.5195C81.127 13.1823 81.487 12.9225 81.9062 12.7402C82.3255 12.5579 82.7881 12.4668 83.2939 12.4668C83.818 12.4668 84.2806 12.5557 84.6816 12.7334C85.0827 12.9066 85.4176 13.1527 85.6865 13.4717C85.9554 13.7907 86.1582 14.1735 86.2949 14.6201C86.4316 15.0622 86.5 15.5521 86.5 16.0898V16.8486H80.7031V15.6045H84.7227V15.4678C84.7135 15.1807 84.6589 14.9186 84.5586 14.6816C84.4583 14.4401 84.3034 14.2487 84.0938 14.1074C83.8841 13.9616 83.613 13.8887 83.2803 13.8887C83.0114 13.8887 82.7767 13.9479 82.5762 14.0664C82.3802 14.1803 82.2161 14.3444 82.084 14.5586C81.9564 14.7682 81.8607 15.0189 81.7969 15.3105C81.7331 15.6022 81.7012 15.9258 81.7012 16.2812V16.5547C81.7012 16.8646 81.7422 17.1517 81.8242 17.416C81.9108 17.6803 82.0361 17.9105 82.2002 18.1064C82.3688 18.2979 82.5693 18.4482 82.8018 18.5576C83.0387 18.6624 83.3076 18.7148 83.6084 18.7148C83.9867 18.7148 84.3285 18.6419 84.6338 18.4961C84.9437 18.3457 85.2126 18.1247 85.4404 17.833L86.3496 18.7764C86.1947 19.0042 85.985 19.223 85.7207 19.4326C85.4609 19.6423 85.1465 19.8132 84.7773 19.9453C84.4082 20.0729 83.9821 20.1367 83.499 20.1367Z" fill="black"/>
</svg>
