<svg width="81" height="30" viewBox="0 0 81 30" fill="none" xmlns="http://www.w3.org/2000/svg">
<rect width="81" height="30" rx="10" fill="#EAEAEA"/>
<path d="M19.1992 10.0469V20H17.3193V10.0469H19.1992ZM25.126 10.0469L21.1953 15.8027H18.7275L18.4814 14.1484H20.1768L22.8359 10.0469H25.126ZM23.1914 20L20.1904 15.502L21.4551 14.1143L25.4404 20H23.1914ZM30.2734 18.4277V15.0166C30.2734 14.766 30.2301 14.5495 30.1436 14.3672C30.057 14.1849 29.9248 14.0436 29.7471 13.9434C29.5693 13.8431 29.3438 13.793 29.0703 13.793C28.8288 13.793 28.6169 13.834 28.4346 13.916C28.2568 13.998 28.1201 14.1143 28.0244 14.2646C27.9287 14.4105 27.8809 14.5791 27.8809 14.7705H26.0693C26.0693 14.4652 26.1423 14.1758 26.2881 13.9023C26.4339 13.6243 26.6413 13.3783 26.9102 13.1641C27.1836 12.9453 27.5094 12.7744 27.8877 12.6514C28.2705 12.5283 28.6989 12.4668 29.1729 12.4668C29.7334 12.4668 30.2324 12.5625 30.6699 12.7539C31.112 12.9408 31.4583 13.2233 31.709 13.6016C31.9642 13.9798 32.0918 14.4561 32.0918 15.0303V18.2568C32.0918 18.626 32.1146 18.9427 32.1602 19.207C32.2103 19.4668 32.2832 19.6924 32.3789 19.8838V20H30.54C30.4535 19.8132 30.3874 19.5762 30.3418 19.2891C30.2962 18.9974 30.2734 18.7103 30.2734 18.4277ZM30.5264 15.4951L30.54 16.5684H29.3984C29.1159 16.5684 28.8675 16.598 28.6533 16.6572C28.4391 16.7119 28.2637 16.7939 28.127 16.9033C27.9902 17.0081 27.8877 17.1357 27.8193 17.2861C27.751 17.432 27.7168 17.5983 27.7168 17.7852C27.7168 17.9674 27.7578 18.1315 27.8398 18.2773C27.9264 18.4232 28.0495 18.5394 28.209 18.626C28.373 18.708 28.5645 18.749 28.7832 18.749C29.1022 18.749 29.3802 18.6852 29.6172 18.5576C29.8542 18.4255 30.0387 18.266 30.1709 18.0791C30.3031 17.8923 30.3737 17.7145 30.3828 17.5459L30.9023 18.3252C30.8385 18.512 30.7428 18.7103 30.6152 18.9199C30.4876 19.1296 30.3236 19.3255 30.123 19.5078C29.9225 19.6901 29.681 19.8405 29.3984 19.959C29.1159 20.0775 28.7878 20.1367 28.4141 20.1367C27.9355 20.1367 27.5072 20.041 27.1289 19.8496C26.7507 19.6582 26.4521 19.3962 26.2334 19.0635C26.0146 18.7308 25.9053 18.3525 25.9053 17.9287C25.9053 17.5368 25.9782 17.1904 26.124 16.8896C26.2699 16.5889 26.4863 16.3359 26.7734 16.1309C27.0605 15.9212 27.416 15.764 27.8398 15.6592C28.2682 15.5498 28.7581 15.4951 29.3096 15.4951H30.5264ZM38.7705 15.6387V17.0537H34.9766V15.6387H38.7705ZM35.5439 12.6035V20H33.7324V12.6035H35.5439ZM40.0352 12.6035V20H38.2168V12.6035H40.0352ZM45.75 18.4277V15.0166C45.75 14.766 45.7067 14.5495 45.6201 14.3672C45.5335 14.1849 45.4014 14.0436 45.2236 13.9434C45.0459 13.8431 44.8203 13.793 44.5469 13.793C44.3053 13.793 44.0934 13.834 43.9111 13.916C43.7334 13.998 43.5967 14.1143 43.501 14.2646C43.4053 14.4105 43.3574 14.5791 43.3574 14.7705H41.5459C41.5459 14.4652 41.6188 14.1758 41.7646 13.9023C41.9105 13.6243 42.1178 13.3783 42.3867 13.1641C42.6602 12.9453 42.986 12.7744 43.3643 12.6514C43.7471 12.5283 44.1755 12.4668 44.6494 12.4668C45.21 12.4668 45.709 12.5625 46.1465 12.7539C46.5885 12.9408 46.9349 13.2233 47.1855 13.6016C47.4408 13.9798 47.5684 14.4561 47.5684 15.0303V18.2568C47.5684 18.626 47.5911 18.9427 47.6367 19.207C47.6868 19.4668 47.7598 19.6924 47.8555 19.8838V20H46.0166C45.93 19.8132 45.8639 19.5762 45.8184 19.2891C45.7728 18.9974 45.75 18.7103 45.75 18.4277ZM46.0029 15.4951L46.0166 16.5684H44.875C44.5924 16.5684 44.3441 16.598 44.1299 16.6572C43.9157 16.7119 43.7402 16.7939 43.6035 16.9033C43.4668 17.0081 43.3643 17.1357 43.2959 17.2861C43.2275 17.432 43.1934 17.5983 43.1934 17.7852C43.1934 17.9674 43.2344 18.1315 43.3164 18.2773C43.403 18.4232 43.526 18.5394 43.6855 18.626C43.8496 18.708 44.041 18.749 44.2598 18.749C44.5788 18.749 44.8568 18.6852 45.0938 18.5576C45.3307 18.4255 45.5153 18.266 45.6475 18.0791C45.7796 17.8923 45.8503 17.7145 45.8594 17.5459L46.3789 18.3252C46.3151 18.512 46.2194 18.7103 46.0918 18.9199C45.9642 19.1296 45.8001 19.3255 45.5996 19.5078C45.3991 19.6901 45.1576 19.8405 44.875 19.959C44.5924 20.0775 44.2643 20.1367 43.8906 20.1367C43.4121 20.1367 42.9837 20.041 42.6055 19.8496C42.2272 19.6582 41.9287 19.3962 41.71 19.0635C41.4912 18.7308 41.3818 18.3525 41.3818 17.9287C41.3818 17.5368 41.4548 17.1904 41.6006 16.8896C41.7464 16.5889 41.9629 16.3359 42.25 16.1309C42.5371 15.9212 42.8926 15.764 43.3164 15.6592C43.7448 15.5498 44.2347 15.4951 44.7861 15.4951H46.0029ZM50.5283 12.6035H52.333L52.2646 15.1465C52.2419 15.9167 52.1507 16.582 51.9912 17.1426C51.8363 17.6986 51.6289 18.1657 51.3691 18.5439C51.1139 18.9222 50.8223 19.2275 50.4941 19.46C50.1706 19.6924 49.8311 19.8724 49.4756 20H49.0449L49.0381 18.5918L49.25 18.5781C49.4642 18.3503 49.6442 18.127 49.79 17.9082C49.9404 17.6849 50.0612 17.4456 50.1523 17.1904C50.2435 16.9352 50.3118 16.6436 50.3574 16.3154C50.4076 15.9827 50.4395 15.5931 50.4531 15.1465L50.5283 12.6035ZM51.0137 12.6035H55.8057V20H54.001V14.0869H51.0137V12.6035ZM48.6348 18.5781H56.8379V22.2148H55.0332V20H50.4736V22.2148H48.6279L48.6348 18.5781ZM62.0195 18.4277V15.0166C62.0195 14.766 61.9762 14.5495 61.8896 14.3672C61.8031 14.1849 61.6709 14.0436 61.4932 13.9434C61.3154 13.8431 61.0898 13.793 60.8164 13.793C60.5749 13.793 60.363 13.834 60.1807 13.916C60.0029 13.998 59.8662 14.1143 59.7705 14.2646C59.6748 14.4105 59.627 14.5791 59.627 14.7705H57.8154C57.8154 14.4652 57.8883 14.1758 58.0342 13.9023C58.18 13.6243 58.3874 13.3783 58.6562 13.1641C58.9297 12.9453 59.2555 12.7744 59.6338 12.6514C60.0166 12.5283 60.445 12.4668 60.9189 12.4668C61.4795 12.4668 61.9785 12.5625 62.416 12.7539C62.8581 12.9408 63.2044 13.2233 63.4551 13.6016C63.7103 13.9798 63.8379 14.4561 63.8379 15.0303V18.2568C63.8379 18.626 63.8607 18.9427 63.9062 19.207C63.9564 19.4668 64.0293 19.6924 64.125 19.8838V20H62.2861C62.1995 19.8132 62.1335 19.5762 62.0879 19.2891C62.0423 18.9974 62.0195 18.7103 62.0195 18.4277ZM62.2725 15.4951L62.2861 16.5684H61.1445C60.862 16.5684 60.6136 16.598 60.3994 16.6572C60.1852 16.7119 60.0098 16.7939 59.873 16.9033C59.7363 17.0081 59.6338 17.1357 59.5654 17.2861C59.4971 17.432 59.4629 17.5983 59.4629 17.7852C59.4629 17.9674 59.5039 18.1315 59.5859 18.2773C59.6725 18.4232 59.7956 18.5394 59.9551 18.626C60.1191 18.708 60.3105 18.749 60.5293 18.749C60.8483 18.749 61.1263 18.6852 61.3633 18.5576C61.6003 18.4255 61.7848 18.266 61.917 18.0791C62.0492 17.8923 62.1198 17.7145 62.1289 17.5459L62.6484 18.3252C62.5846 18.512 62.4889 18.7103 62.3613 18.9199C62.2337 19.1296 62.0697 19.3255 61.8691 19.5078C61.6686 19.6901 61.4271 19.8405 61.1445 19.959C60.862 20.0775 60.5339 20.1367 60.1602 20.1367C59.6816 20.1367 59.2533 20.041 58.875 19.8496C58.4967 19.6582 58.1982 19.3962 57.9795 19.0635C57.7607 18.7308 57.6514 18.3525 57.6514 17.9287C57.6514 17.5368 57.7243 17.1904 57.8701 16.8896C58.016 16.5889 58.2324 16.3359 58.5195 16.1309C58.8066 15.9212 59.1621 15.764 59.5859 15.6592C60.0143 15.5498 60.5042 15.4951 61.0557 15.4951H62.2725Z" fill="black"/>
</svg>
