<svg width="96" height="30" viewBox="0 0 96 30" fill="none" xmlns="http://www.w3.org/2000/svg">
<rect width="96" height="30" rx="10" fill="#EAEAEA"/>
<path d="M25.3799 14.7705V15.2832C25.3799 16.0352 25.2796 16.7119 25.0791 17.3135C24.8786 17.9105 24.5938 18.4186 24.2246 18.8379C23.8555 19.2572 23.4157 19.5785 22.9053 19.8018C22.3949 20.0251 21.8275 20.1367 21.2031 20.1367C20.5879 20.1367 20.0228 20.0251 19.5078 19.8018C18.9974 19.5785 18.5553 19.2572 18.1816 18.8379C17.8079 18.4186 17.5186 17.9105 17.3135 17.3135C17.1084 16.7119 17.0059 16.0352 17.0059 15.2832V14.7705C17.0059 14.014 17.1084 13.3372 17.3135 12.7402C17.5186 12.1432 17.8057 11.6351 18.1748 11.2158C18.5439 10.792 18.9837 10.4684 19.4941 10.2451C20.0091 10.0218 20.5742 9.91016 21.1895 9.91016C21.8138 9.91016 22.3812 10.0218 22.8916 10.2451C23.402 10.4684 23.8418 10.792 24.2109 11.2158C24.5846 11.6351 24.8717 12.1432 25.0723 12.7402C25.2773 13.3372 25.3799 14.014 25.3799 14.7705ZM23.4795 15.2832V14.7568C23.4795 14.2145 23.4294 13.7383 23.3291 13.3281C23.2288 12.9134 23.0807 12.5648 22.8848 12.2822C22.6888 11.9997 22.4473 11.7878 22.1602 11.6465C21.873 11.5007 21.5495 11.4277 21.1895 11.4277C20.8249 11.4277 20.5013 11.5007 20.2188 11.6465C19.9408 11.7878 19.7038 11.9997 19.5078 12.2822C19.3118 12.5648 19.1615 12.9134 19.0566 13.3281C18.9564 13.7383 18.9062 14.2145 18.9062 14.7568V15.2832C18.9062 15.821 18.9564 16.2972 19.0566 16.7119C19.1615 17.1266 19.3118 17.4775 19.5078 17.7646C19.7083 18.0472 19.9499 18.2614 20.2324 18.4072C20.515 18.5531 20.8385 18.626 21.2031 18.626C21.5677 18.626 21.8913 18.5531 22.1738 18.4072C22.4564 18.2614 22.6934 18.0472 22.8848 17.7646C23.0807 17.4775 23.2288 17.1266 23.3291 16.7119C23.4294 16.2972 23.4795 15.821 23.4795 15.2832ZM31.416 9.35645H32.8789C32.8789 9.74382 32.8288 10.0697 32.7285 10.334C32.6283 10.5938 32.4733 10.8125 32.2637 10.9902C32.054 11.1634 31.7852 11.307 31.457 11.4209C31.1289 11.5348 30.737 11.6351 30.2812 11.7217C29.8984 11.7992 29.5612 11.9268 29.2695 12.1045C28.9779 12.2822 28.734 12.526 28.5381 12.8359C28.3467 13.1458 28.2077 13.54 28.1211 14.0186C28.0345 14.4971 28.0072 15.0736 28.0391 15.748V16.1445L26.624 16.3086V15.9121C26.624 15.0326 26.7038 14.2669 26.8633 13.6152C27.0228 12.959 27.2484 12.4076 27.54 11.9609C27.8317 11.5098 28.1803 11.152 28.5859 10.8877C28.9961 10.6188 29.4541 10.4297 29.96 10.3203C30.2972 10.252 30.5729 10.1813 30.7871 10.1084C31.0059 10.0355 31.1654 9.94206 31.2656 9.82812C31.3659 9.70964 31.416 9.55241 31.416 9.35645ZM30.4043 13.0205C30.901 13.0205 31.3408 13.1071 31.7236 13.2803C32.111 13.4489 32.4368 13.6882 32.7012 13.998C32.9655 14.3034 33.166 14.6657 33.3027 15.085C33.444 15.4997 33.5146 15.9531 33.5146 16.4453V16.5889C33.5146 17.0993 33.4372 17.571 33.2822 18.0039C33.1318 18.4368 32.9108 18.8128 32.6191 19.1318C32.3275 19.4508 31.9674 19.6992 31.5391 19.877C31.1107 20.0547 30.6208 20.1436 30.0693 20.1436C29.5225 20.1436 29.0348 20.0501 28.6064 19.8633C28.1781 19.6719 27.8158 19.4076 27.5195 19.0703C27.2233 18.7331 27 18.3366 26.8496 17.8809C26.6992 17.4206 26.624 16.9193 26.624 16.377V16.2334C26.6195 16.1423 26.6491 16.0557 26.7129 15.9736C26.7767 15.8916 26.8519 15.8005 26.9385 15.7002C27.0296 15.5999 27.1117 15.4792 27.1846 15.3379C27.4352 14.8548 27.7178 14.4401 28.0322 14.0938C28.3512 13.7474 28.7067 13.4831 29.0986 13.3008C29.4906 13.1139 29.9258 13.0205 30.4043 13.0205ZM30.0557 14.4424C29.6683 14.4424 29.3538 14.5358 29.1123 14.7227C28.8753 14.9049 28.7021 15.1488 28.5928 15.4541C28.4834 15.7549 28.4287 16.0853 28.4287 16.4453V16.5889C28.4287 16.8805 28.4583 17.1562 28.5176 17.416C28.5814 17.6712 28.6771 17.8968 28.8047 18.0928C28.9323 18.2887 29.1009 18.4437 29.3105 18.5576C29.5202 18.667 29.7731 18.7217 30.0693 18.7217C30.3656 18.7217 30.6162 18.667 30.8213 18.5576C31.0309 18.4437 31.1995 18.2887 31.3271 18.0928C31.4548 17.8968 31.5482 17.6712 31.6074 17.416C31.6712 17.1562 31.7031 16.8805 31.7031 16.5889V16.4453C31.7031 16.1764 31.6712 15.9212 31.6074 15.6797C31.5482 15.4382 31.4548 15.2262 31.3271 15.0439C31.1995 14.8571 31.0286 14.7113 30.8145 14.6064C30.6048 14.4971 30.3519 14.4424 30.0557 14.4424ZM36.9326 19.1797L38.915 12.6035H40.8496L37.8828 21.1211C37.8145 21.3034 37.7256 21.5016 37.6162 21.7158C37.5114 21.93 37.3701 22.1328 37.1924 22.3242C37.0146 22.5202 36.7913 22.6797 36.5225 22.8027C36.2581 22.9258 35.9368 22.9873 35.5586 22.9873C35.3945 22.9873 35.2487 22.9759 35.1211 22.9531C34.9935 22.9303 34.859 22.9007 34.7178 22.8643V21.5107C34.7633 21.5153 34.8158 21.5176 34.875 21.5176C34.9388 21.5221 34.9935 21.5244 35.0391 21.5244C35.3034 21.5244 35.5221 21.4925 35.6953 21.4287C35.8685 21.3695 36.0075 21.2715 36.1123 21.1348C36.2217 21.0026 36.3128 20.8294 36.3857 20.6152L36.9326 19.1797ZM35.9551 12.6035L37.6299 18.0518L37.9238 19.959L36.6797 20.1846L34.0068 12.6035H35.9551ZM47.8086 12.6035V20H45.9971V12.6035H47.8086ZM46.9883 15.8232V17.2451C46.8151 17.3271 46.6055 17.4046 46.3594 17.4775C46.1178 17.5459 45.8626 17.6006 45.5938 17.6416C45.3294 17.6826 45.0719 17.7031 44.8213 17.7031C44.1423 17.7031 43.5566 17.6029 43.0645 17.4023C42.5768 17.2018 42.2008 16.8942 41.9365 16.4795C41.6722 16.0602 41.54 15.5247 41.54 14.873V12.5967H43.3447V14.873C43.3447 15.224 43.3971 15.502 43.502 15.707C43.6068 15.9121 43.7686 16.0579 43.9873 16.1445C44.2061 16.2311 44.484 16.2744 44.8213 16.2744C45.0811 16.2744 45.3294 16.2562 45.5664 16.2197C45.8034 16.1787 46.0381 16.1263 46.2705 16.0625C46.5075 15.9941 46.7467 15.9144 46.9883 15.8232ZM52.7715 20.1367C52.2109 20.1367 51.7074 20.0456 51.2607 19.8633C50.8141 19.681 50.4336 19.4281 50.1191 19.1045C49.8092 18.7764 49.57 18.3958 49.4014 17.9629C49.2373 17.5254 49.1553 17.056 49.1553 16.5547V16.2812C49.1553 15.7116 49.2373 15.1943 49.4014 14.7295C49.5654 14.2601 49.7979 13.8568 50.0986 13.5195C50.3994 13.1823 50.7594 12.9225 51.1787 12.7402C51.598 12.5579 52.0605 12.4668 52.5664 12.4668C53.0905 12.4668 53.5531 12.5557 53.9541 12.7334C54.3551 12.9066 54.6901 13.1527 54.959 13.4717C55.2279 13.7907 55.4307 14.1735 55.5674 14.6201C55.7041 15.0622 55.7725 15.5521 55.7725 16.0898V16.8486H49.9756V15.6045H53.9951V15.4678C53.986 15.1807 53.9313 14.9186 53.8311 14.6816C53.7308 14.4401 53.5758 14.2487 53.3662 14.1074C53.1566 13.9616 52.8854 13.8887 52.5527 13.8887C52.2839 13.8887 52.0492 13.9479 51.8486 14.0664C51.6527 14.1803 51.4886 14.3444 51.3564 14.5586C51.2288 14.7682 51.1331 15.0189 51.0693 15.3105C51.0055 15.6022 50.9736 15.9258 50.9736 16.2812V16.5547C50.9736 16.8646 51.0146 17.1517 51.0967 17.416C51.1833 17.6803 51.3086 17.9105 51.4727 18.1064C51.6413 18.2979 51.8418 18.4482 52.0742 18.5576C52.3112 18.6624 52.5801 18.7148 52.8809 18.7148C53.2591 18.7148 53.6009 18.6419 53.9062 18.4961C54.2161 18.3457 54.485 18.1247 54.7129 17.833L55.6221 18.7764C55.4671 19.0042 55.2575 19.223 54.9932 19.4326C54.7334 19.6423 54.4189 19.8132 54.0498 19.9453C53.6807 20.0729 53.2546 20.1367 52.7715 20.1367ZM62.0342 15.6387V17.0537H58.2402V15.6387H62.0342ZM58.8076 12.6035V20H56.9961V12.6035H58.8076ZM63.2988 12.6035V20H61.4805V12.6035H63.2988ZM66.7646 17.4229L69.458 12.6035H71.2695V20H69.458V15.1738L66.7646 20H64.9531V12.6035H66.7646V17.4229ZM76.2324 20.1367C75.6719 20.1367 75.1683 20.0456 74.7217 19.8633C74.2751 19.681 73.8945 19.4281 73.5801 19.1045C73.2702 18.7764 73.0309 18.3958 72.8623 17.9629C72.6982 17.5254 72.6162 17.056 72.6162 16.5547V16.2812C72.6162 15.7116 72.6982 15.1943 72.8623 14.7295C73.0264 14.2601 73.2588 13.8568 73.5596 13.5195C73.8604 13.1823 74.2204 12.9225 74.6396 12.7402C75.0589 12.5579 75.5215 12.4668 76.0273 12.4668C76.5514 12.4668 77.014 12.5557 77.415 12.7334C77.8161 12.9066 78.151 13.1527 78.4199 13.4717C78.6888 13.7907 78.8916 14.1735 79.0283 14.6201C79.165 15.0622 79.2334 15.5521 79.2334 16.0898V16.8486H73.4365V15.6045H77.4561V15.4678C77.4469 15.1807 77.3923 14.9186 77.292 14.6816C77.1917 14.4401 77.0368 14.2487 76.8271 14.1074C76.6175 13.9616 76.3464 13.8887 76.0137 13.8887C75.7448 13.8887 75.5101 13.9479 75.3096 14.0664C75.1136 14.1803 74.9495 14.3444 74.8174 14.5586C74.6898 14.7682 74.5941 15.0189 74.5303 15.3105C74.4665 15.6022 74.4346 15.9258 74.4346 16.2812V16.5547C74.4346 16.8646 74.4756 17.1517 74.5576 17.416C74.6442 17.6803 74.7695 17.9105 74.9336 18.1064C75.1022 18.2979 75.3027 18.4482 75.5352 18.5576C75.7721 18.6624 76.041 18.7148 76.3418 18.7148C76.7201 18.7148 77.0618 18.6419 77.3672 18.4961C77.6771 18.3457 77.946 18.1247 78.1738 17.833L79.083 18.7764C78.9281 19.0042 78.7184 19.223 78.4541 19.4326C78.1943 19.6423 77.8799 19.8132 77.5107 19.9453C77.1416 20.0729 76.7155 20.1367 76.2324 20.1367Z" fill="black"/>
</svg>
