<svg width="24" height="25" viewBox="0 0 24 25" fill="none" xmlns="http://www.w3.org/2000/svg">
<mask id="mask0_1682_31226" style="mask-type:alpha" maskUnits="userSpaceOnUse" x="0" y="0" width="24" height="25">
<rect y="0.333374" width="24" height="24" fill="#D9D9D9"/>
</mask>
<g mask="url(#mask0_1682_31226)">
<path d="M12 13.8334L18 9.83337L12 5.83337V13.8334ZM12.7 19.3334H18.3C18.1833 19.7667 17.9833 20.1167 17.7 20.3834C17.4167 20.65 17.05 20.8167 16.6 20.8834L5.7 22.2084C5.15 22.2917 4.65417 22.1625 4.2125 21.8209C3.77084 21.4792 3.51667 21.0334 3.45 20.4834L2.125 9.55837C2.05834 9.00837 2.19167 8.51671 2.525 8.08337C2.85834 7.65004 3.3 7.40004 3.85 7.33337L5 7.18337V9.18337L4.1 9.30837L5.45 20.2334L12.7 19.3334ZM9 17.3334C8.45 17.3334 7.97917 17.1375 7.5875 16.7459C7.19584 16.3542 7 15.8834 7 15.3334V4.33337C7 3.78337 7.19584 3.31254 7.5875 2.92087C7.97917 2.52921 8.45 2.33337 9 2.33337H20C20.55 2.33337 21.0208 2.52921 21.4125 2.92087C21.8042 3.31254 22 3.78337 22 4.33337V15.3334C22 15.8834 21.8042 16.3542 21.4125 16.7459C21.0208 17.1375 20.55 17.3334 20 17.3334H9ZM9 15.3334H20V4.33337H9V15.3334Z" fill="black"/>
</g>
</svg>
