<svg width="24" height="24" viewBox="0 0 24 24" fill="none" xmlns="http://www.w3.org/2000/svg">
<path d="M15.3333 7.5H17.5556M15.3333 12H17.5556M17.5556 16.5H6.44444M6.44444 7.5V12H10.8889V7.5H6.44444ZM4.22222 21H19.7778C20.3671 21 20.9324 20.7629 21.3491 20.341C21.7659 19.919 22 19.3467 22 18.75V5.25C22 4.65326 21.7659 4.08097 21.3491 3.65901C20.9324 3.23705 20.3671 3 19.7778 3H4.22222C3.63285 3 3.06762 3.23705 2.65087 3.65901C2.23413 4.08097 2 4.65326 2 5.25V18.75C2 19.3467 2.23413 19.919 2.65087 20.341C3.06762 20.7629 3.63285 21 4.22222 21Z" stroke="white" stroke-width="2.88898" stroke-linecap="round" stroke-linejoin="round"/>
</svg>
