<svg width="24" height="25" viewBox="0 0 24 25" fill="none" xmlns="http://www.w3.org/2000/svg">
<mask id="mask0_1682_31215" style="mask-type:alpha" maskUnits="userSpaceOnUse" x="0" y="0" width="24" height="25">
<rect y="0.333374" width="24" height="24" fill="#D9D9D9"/>
</mask>
<g mask="url(#mask0_1682_31215)">
<path d="M4 22.3334V8.33337C4 7.78337 4.19583 7.31254 4.5875 6.92087C4.97917 6.52921 5.45 6.33337 6 6.33337H14C14.55 6.33337 15.0208 6.52921 15.4125 6.92087C15.8042 7.31254 16 7.78337 16 8.33337V22.3334L10 19.3334L4 22.3334ZM6 19.3084L10 17.1584L14 19.3084V8.33337H6V19.3084ZM18 18.3334V4.33337H7V2.33337H18C18.55 2.33337 19.0208 2.52921 19.4125 2.92087C19.8042 3.31254 20 3.78337 20 4.33337V18.3334H18Z" fill="black"/>
</g>
</svg>
