<svg width="24" height="25" viewBox="0 0 24 25" fill="none" xmlns="http://www.w3.org/2000/svg">
<mask id="mask0_1682_31208" style="mask-type:alpha" maskUnits="userSpaceOnUse" x="0" y="0" width="24" height="25">
<rect y="0.333374" width="24" height="24" fill="#D9D9D9"/>
</mask>
<g mask="url(#mask0_1682_31208)">
<path d="M12 21.3334L10.55 20.0334C8.86667 18.5167 7.475 17.2084 6.375 16.1084C5.275 15.0084 4.4 14.0209 3.75 13.1459C3.1 12.2709 2.64583 11.4667 2.3875 10.7334C2.12917 10 2 9.25003 2 8.48337C2 6.9167 2.525 5.60837 3.575 4.55837C4.625 3.50837 5.93333 2.98337 7.5 2.98337C8.36667 2.98337 9.19167 3.1667 9.975 3.53337C10.7583 3.90003 11.4333 4.4167 12 5.08337C12.5667 4.4167 13.2417 3.90003 14.025 3.53337C14.8083 3.1667 15.6333 2.98337 16.5 2.98337C18.0667 2.98337 19.375 3.50837 20.425 4.55837C21.475 5.60837 22 6.9167 22 8.48337C22 9.25003 21.8708 10 21.6125 10.7334C21.3542 11.4667 20.9 12.2709 20.25 13.1459C19.6 14.0209 18.725 15.0084 17.625 16.1084C16.525 17.2084 15.1333 18.5167 13.45 20.0334L12 21.3334ZM12 18.6334C13.6 17.2 14.9167 15.9709 15.95 14.9459C16.9833 13.9209 17.8 13.0292 18.4 12.2709C19 11.5125 19.4167 10.8375 19.65 10.2459C19.8833 9.6542 20 9.0667 20 8.48337C20 7.48337 19.6667 6.65003 19 5.98337C18.3333 5.3167 17.5 4.98337 16.5 4.98337C15.7167 4.98337 14.9917 5.2042 14.325 5.64587C13.6583 6.08753 13.2 6.65003 12.95 7.33337H11.05C10.8 6.65003 10.3417 6.08753 9.675 5.64587C9.00833 5.2042 8.28333 4.98337 7.5 4.98337C6.5 4.98337 5.66667 5.3167 5 5.98337C4.33333 6.65003 4 7.48337 4 8.48337C4 9.0667 4.11667 9.6542 4.35 10.2459C4.58333 10.8375 5 11.5125 5.6 12.2709C6.2 13.0292 7.01667 13.9209 8.05 14.9459C9.08333 15.9709 10.4 17.2 12 18.6334Z" fill="black"/>
</g>
</svg>
