<svg width="24" height="25" viewBox="0 0 24 25" fill="none" xmlns="http://www.w3.org/2000/svg">
<mask id="mask0_1682_31305" style="mask-type:alpha" maskUnits="userSpaceOnUse" x="0" y="0" width="24" height="25">
<rect y="0.333374" width="24" height="24" fill="#D9D9D9"/>
</mask>
<g mask="url(#mask0_1682_31305)">
<path d="M12 21.3334C9.7 21.3334 7.69583 20.5709 5.9875 19.0459C4.27917 17.5209 3.3 15.6167 3.05 13.3334H5.1C5.33333 15.0667 6.10417 16.5 7.4125 17.6334C8.72083 18.7667 10.25 19.3334 12 19.3334C13.95 19.3334 15.6042 18.6542 16.9625 17.2959C18.3208 15.9375 19 14.2834 19 12.3334C19 10.3834 18.3208 8.72921 16.9625 7.37087C15.6042 6.01254 13.95 5.33337 12 5.33337C10.85 5.33337 9.775 5.60004 8.775 6.13337C7.775 6.66671 6.93333 7.40004 6.25 8.33337H9V10.3334H3V4.33337H5V6.68337C5.85 5.61671 6.8875 4.79171 8.1125 4.20837C9.3375 3.62504 10.6333 3.33337 12 3.33337C13.25 3.33337 14.4208 3.57087 15.5125 4.04587C16.6042 4.52087 17.5542 5.16254 18.3625 5.97087C19.1708 6.77921 19.8125 7.72921 20.2875 8.82087C20.7625 9.91254 21 11.0834 21 12.3334C21 13.5834 20.7625 14.7542 20.2875 15.8459C19.8125 16.9375 19.1708 17.8875 18.3625 18.6959C17.5542 19.5042 16.6042 20.1459 15.5125 20.6209C14.4208 21.0959 13.25 21.3334 12 21.3334ZM14.8 16.5334L11 12.7334V7.33337H13V11.9334L16.2 15.1334L14.8 16.5334Z" fill="black"/>
</g>
</svg>
