<svg width="26" height="28" viewBox="0 0 26 28" fill="none" xmlns="http://www.w3.org/2000/svg">
<path d="M26 13.3324V26.3324C26 26.6197 25.8859 26.8952 25.6827 27.0984C25.4795 27.3016 25.204 27.4157 24.9167 27.4157H17.3333C17.046 27.4157 16.7705 27.3016 16.5673 27.0984C16.3641 26.8952 16.25 26.6197 16.25 26.3324V19.2907C16.25 19.147 16.1929 19.0093 16.0914 18.9077C15.9898 18.8061 15.852 18.749 15.7083 18.749H10.2917C10.148 18.749 10.0102 18.8061 9.90865 18.9077C9.80707 19.0093 9.75 19.147 9.75 19.2907V26.3324C9.75 26.6197 9.63586 26.8952 9.4327 27.0984C9.22954 27.3016 8.95399 27.4157 8.66667 27.4157H1.08333C0.796016 27.4157 0.520466 27.3016 0.317301 27.0984C0.114137 26.8952 0 26.6197 0 26.3324V13.3324C0.00026635 12.7578 0.228714 12.2069 0.635104 11.8008L11.4684 0.967474C11.8747 0.561452 12.4256 0.333374 13 0.333374C13.5744 0.333374 14.1253 0.561452 14.5316 0.967474L25.3649 11.8008C25.7713 12.2069 25.9997 12.7578 26 13.3324Z" fill="white"/>
</svg>
