<svg width="24" height="24" viewBox="0 0 24 24" fill="none" xmlns="http://www.w3.org/2000/svg">
<path d="M22 11.5996V21.2C22 21.4122 21.9122 21.6156 21.7559 21.7657C21.5996 21.9157 21.3877 22 21.1667 22H15.3333C15.1123 22 14.9004 21.9157 14.7441 21.7657C14.5878 21.6156 14.5 21.4122 14.5 21.2V15.9998C14.5 15.8937 14.4561 15.7919 14.378 15.7169C14.2998 15.6419 14.1938 15.5998 14.0833 15.5998H9.91667C9.80616 15.5998 9.70018 15.6419 9.62204 15.7169C9.5439 15.7919 9.5 15.8937 9.5 15.9998V21.2C9.5 21.4122 9.4122 21.6156 9.25592 21.7657C9.09964 21.9157 8.88768 22 8.66667 22H2.83333C2.61232 22 2.40036 21.9157 2.24408 21.7657C2.0878 21.6156 2 21.4122 2 21.2V11.5996C2.0002 11.1753 2.17593 10.7685 2.48854 10.4686L10.8219 2.46828C11.1344 2.16843 11.5582 2 12 2C12.4418 2 12.8656 2.16843 13.1781 2.46828L21.5115 10.4686C21.8241 10.7685 21.9998 11.1753 22 11.5996Z" fill="white"/>
</svg>
