<svg width="26" height="24" viewBox="0 0 26 24" fill="none" xmlns="http://www.w3.org/2000/svg">
<path d="M16.8217 6.91135H19.3695M16.8217 12.007H19.3695M19.3695 17.1027H6.63035M6.63035 6.91135V12.007H11.726V6.91135H6.63035ZM4.08251 22.1984H21.9174C22.5931 22.1984 23.2412 21.93 23.719 21.4521C24.1968 20.9743 24.4652 20.3263 24.4652 19.6505V4.36351C24.4652 3.68778 24.1968 3.03973 23.719 2.56192C23.2412 2.08411 22.5931 1.81567 21.9174 1.81567H4.08251C3.40678 1.81567 2.75873 2.08411 2.28091 2.56192C1.8031 3.03973 1.53467 3.68778 1.53467 4.36351V19.6505C1.53467 20.3263 1.8031 20.9743 2.28091 21.4521C2.75873 21.93 3.40678 22.1984 4.08251 22.1984Z" stroke="white" stroke-width="2.88898" stroke-linecap="round" stroke-linejoin="round"/>
</svg>
