<svg width="24" height="25" viewBox="0 0 24 25" fill="none" xmlns="http://www.w3.org/2000/svg">
<mask id="mask0_1682_31218" style="mask-type:alpha" maskUnits="userSpaceOnUse" x="0" y="0" width="24" height="25">
<rect y="0.333374" width="24" height="24" fill="#D9D9D9"/>
</mask>
<g mask="url(#mask0_1682_31218)">
<path d="M11 21.3334C9.75 21.3334 8.57917 21.1 7.4875 20.6334C6.39583 20.1667 5.44167 19.525 4.625 18.7084C3.80833 17.8917 3.16667 16.9375 2.7 15.8459C2.23333 14.7542 2 13.5834 2 12.3334C2 11.0834 2.23333 9.91254 2.7 8.82087C3.16667 7.72921 3.80833 6.77504 4.625 5.95837C5.44167 5.14171 6.39583 4.50004 7.4875 4.03337C8.57917 3.56671 9.75 3.33337 11 3.33337C11.35 3.33337 11.6875 3.35421 12.0125 3.39587C12.3375 3.43754 12.6667 3.50004 13 3.58337V5.63337C12.6667 5.53337 12.3375 5.45837 12.0125 5.40837C11.6875 5.35837 11.35 5.33337 11 5.33337C9.03333 5.33337 7.375 6.00837 6.025 7.35837C4.675 8.70837 4 10.3667 4 12.3334C4 14.3 4.675 15.9584 6.025 17.3084C7.375 18.6584 9.03333 19.3334 11 19.3334C12.9667 19.3334 14.625 18.6584 15.975 17.3084C17.325 15.9584 18 14.3 18 12.3334C18 12.15 17.9917 11.9834 17.975 11.8334C17.9583 11.6834 17.9333 11.5167 17.9 11.3334H19.95C19.9833 11.5167 20 11.6834 20 11.8334V12.3334C20 13.5834 19.7667 14.7542 19.3 15.8459C18.8333 16.9375 18.1917 17.8917 17.375 18.7084C16.5583 19.525 15.6042 20.1667 14.5125 20.6334C13.4208 21.1 12.25 21.3334 11 21.3334ZM13.8 16.5334L10 12.7334V7.33337H12V11.9334L15.2 15.1334L13.8 16.5334ZM18 9.33337V6.33337H15V4.33337H18V1.33337H20V4.33337H23V6.33337H20V9.33337H18Z" fill="black"/>
</g>
</svg>
