<svg width="26" height="21" viewBox="0 0 26 21" fill="none" xmlns="http://www.w3.org/2000/svg">
<path d="M11.05 16.6289C11.96 16.6289 12.7292 16.3235 13.3575 15.7126C13.9858 15.1017 14.3 14.3539 14.3 13.4692V6.51781H18.2V3.99003H13V10.9414C12.7183 10.7518 12.415 10.5989 12.09 10.4826C11.765 10.3663 11.4183 10.3086 11.05 10.3095C10.14 10.3095 9.37083 10.6149 8.7425 11.2258C8.11417 11.8367 7.8 12.5845 7.8 13.4692C7.8 14.3539 8.11417 15.1017 8.7425 15.7126C9.37083 16.3235 10.14 16.6289 11.05 16.6289ZM2.6 20.4206C1.885 20.4206 1.27313 20.1733 0.7644 19.6787C0.255667 19.1841 0.000866667 18.5888 0 17.8928V2.72614C0 2.031 0.2548 1.43613 0.7644 0.941531C1.274 0.446929 1.88587 0.199207 2.6 0.198364H23.4C24.115 0.198364 24.7273 0.446086 25.2369 0.941531C25.7465 1.43698 26.0009 2.03185 26 2.72614V17.8928C26 18.5879 25.7456 19.1832 25.2369 19.6787C24.7282 20.1741 24.1159 20.4214 23.4 20.4206H2.6ZM2.6 17.8928H23.4V2.72614H2.6V17.8928Z" fill="black"/>
</svg>
